<svg xmlns="http://www.w3.org/2000/svg" width="571.417" height="383.206" viewBox="0 0 571.417 383.206">
  <g id="Press_play-cuate" data-name="Press play-cuate" transform="translate(-59.2 -89.68)">
    <g id="freepik--Screen--inject-2" transform="translate(59.2 89.68)">
      <rect id="Rectangle_239" data-name="Rectangle 239" width="571.417" height="383.206" fill="#263238"/>
      <rect id="Rectangle_240" data-name="Rectangle 240" width="571.417" height="15.883" fill="#455a64"/>
      <path id="Path_1760" data-name="Path 1760" d="M69.911,96a3.946,3.946,0,1,1-3.946-3.929A3.946,3.946,0,0,1,69.911,96Z" transform="translate(-57.285 -88.057)" fill="#c7c7c7"/>
      <path id="Path_1761" data-name="Path 1761" d="M79.491,96A3.946,3.946,0,1,1,75.63,92.07,3.946,3.946,0,0,1,79.491,96Z" transform="translate(-50.781 -88.058)" fill="#fff"/>
      <path id="Path_1762" data-name="Path 1762" d="M89.071,96a3.946,3.946,0,1,1-3.946-3.929A3.946,3.946,0,0,1,89.071,96Z" transform="translate(-44.277 -88.057)" fill="#ef5a5a"/>
      <rect id="Rectangle_241" data-name="Rectangle 241" width="571.417" height="15.967" transform="translate(0 367.239)" fill="#a6a6a6"/>
      <path id="Path_1763" data-name="Path 1763" d="M575.445,312.14H81.428a1.528,1.528,0,1,0,0,3.056H575.445a1.528,1.528,0,1,0,0-3.056Z" transform="translate(-45.146 61.361)" fill="#fff"/>
      <path id="Path_1764" data-name="Path 1764" d="M79.23,314.286a3.056,3.056,0,1,1,3.056,3.056A3.056,3.056,0,0,1,79.23,314.286Z" transform="translate(-45.6 60.744)" fill="#ef5a5a"/>
      <path id="Path_1765" data-name="Path 1765" d="M390.01,310.11v4.432H391.4V311.52h3.039v-1.41H390.01Z" transform="translate(165.407 59.983)" fill="#fff"/>
      <path id="Path_1766" data-name="Path 1766" d="M396.679,310.11H393.64v1.41h3.039v3.022h1.393V310.11Z" transform="translate(167.871 59.983)" fill="#fff"/>
      <path id="Path_1767" data-name="Path 1767" d="M396.679,316.619H393.64v1.394h4.432V313.58h-1.393Z" transform="translate(167.871 62.339)" fill="#fff"/>
      <path id="Path_1768" data-name="Path 1768" d="M391.4,313.58H390.01v4.432h4.432v-1.394H391.4Z" transform="translate(165.407 62.339)" fill="#fff"/>
      <path id="Path_1769" data-name="Path 1769" d="M62.45,310.4v8.9l7.169-4.449Z" transform="translate(-56.993 60.18)" fill="#fff"/>
      <path id="Path_1770" data-name="Path 1770" d="M69,313.731a1.914,1.914,0,0,1,.285-1.007.89.89,0,0,1,1.578,0,1.914,1.914,0,0,1,0,2.015.89.89,0,0,1-1.578,0A1.914,1.914,0,0,1,69,313.731Zm1.679,0a1.427,1.427,0,0,0-.2-.756q-.2-.285-.4-.252a.734.734,0,0,0-.4.252,1.427,1.427,0,0,0-.2.756,1.326,1.326,0,0,0,.2.739.436.436,0,0,0,.806,0A1.326,1.326,0,0,0,70.679,313.731Z" transform="translate(-52.546 61.433)" fill="#fff"/>
      <path id="Path_1771" data-name="Path 1771" d="M70.82,313.731a1.914,1.914,0,0,1,.285-1.007.89.89,0,0,1,1.578,0,1.914,1.914,0,0,1,0,2.015.89.89,0,0,1-1.578,0,1.914,1.914,0,0,1-.285-1.007Zm1.679,0a1.427,1.427,0,0,0-.2-.756q-.2-.285-.4-.252a.733.733,0,0,0-.4.252,1.427,1.427,0,0,0-.2.756,1.327,1.327,0,0,0,.2.739.437.437,0,0,0,.806,0,1.326,1.326,0,0,0,.2-.739Z" transform="translate(-51.31 61.433)" fill="#fff"/>
      <path id="Path_1772" data-name="Path 1772" d="M72.989,312.65a.336.336,0,0,1,.319.319.319.319,0,0,1-.319.3.3.3,0,0,1-.319-.3A.319.319,0,0,1,72.989,312.65Zm0,1.679a.336.336,0,0,1,.319.319.319.319,0,0,1-.319.3.3.3,0,0,1-.319-.3A.319.319,0,0,1,72.989,314.329Z" transform="translate(-50.054 61.708)" fill="#fff"/>
      <path id="Path_1773" data-name="Path 1773" d="M73.22,313.728a1.78,1.78,0,0,1,.285-1.007.974.974,0,0,1,.789-.47.94.94,0,0,1,.772.47,1.914,1.914,0,0,1,0,2.015.94.94,0,0,1-.772.47.974.974,0,0,1-.789-.47A1.779,1.779,0,0,1,73.22,313.728Zm1.679,0a1.427,1.427,0,0,0-.2-.756c-.118-.185-.252-.269-.386-.252a.4.4,0,0,0-.4.252,1.427,1.427,0,0,0-.2.756,1.326,1.326,0,0,0,.2.739.52.52,0,0,0,.4.269.487.487,0,0,0,.386-.269,1.326,1.326,0,0,0,.185-.739Z" transform="translate(-49.681 61.436)" fill="#fff"/>
      <path id="Path_1774" data-name="Path 1774" d="M75,313.728a1.78,1.78,0,0,1,.285-1.007.974.974,0,0,1,.789-.47.991.991,0,0,1,.789.47,2.032,2.032,0,0,1,0,2.015.991.991,0,0,1-.789.47.974.974,0,0,1-.789-.47A1.78,1.78,0,0,1,75,313.728Zm1.679,0a1.444,1.444,0,0,0-.218-.756c-.118-.185-.252-.269-.386-.252a.4.4,0,0,0-.4.252,1.427,1.427,0,0,0-.2.756,1.326,1.326,0,0,0,.2.739.52.52,0,0,0,.4.269.487.487,0,0,0,.386-.269A1.326,1.326,0,0,0,76.679,313.728Z" transform="translate(-48.473 61.436)" fill="#fff"/>
      <path id="Path_1775" data-name="Path 1775" d="M379.85,313.731a1.914,1.914,0,0,1,.285-1.007.89.89,0,0,1,1.578,0,1.914,1.914,0,0,1,0,2.015.89.89,0,0,1-1.578,0,1.914,1.914,0,0,1-.286-1.007Zm1.679,0a1.427,1.427,0,0,0-.2-.756q-.2-.285-.4-.252a.733.733,0,0,0-.4.252,1.427,1.427,0,0,0-.2.756,1.326,1.326,0,0,0,.2.739.436.436,0,0,0,.806,0A1.326,1.326,0,0,0,381.529,313.731Z" transform="translate(158.509 61.433)" fill="#fff"/>
      <path id="Path_1776" data-name="Path 1776" d="M383.2,313.409a.991.991,0,0,1,.319.739,1.057,1.057,0,0,1-.319.739.991.991,0,0,1-.739.319h0a.991.991,0,0,1-.739-.319.218.218,0,0,1,0-.336.252.252,0,0,1,.336,0,.554.554,0,0,0,.4.168.571.571,0,0,0,.571-.571.554.554,0,0,0-.168-.4.521.521,0,0,0-.4-.168.571.571,0,0,0-.4.168.218.218,0,0,1-.336,0h0v-.235l.134-1.091a.185.185,0,0,1,.1-.168h1.377a.235.235,0,0,1,0,.47h-1.091v.42a.871.871,0,0,1,.285,0A1.041,1.041,0,0,1,383.2,313.409Z" transform="translate(159.726 61.436)" fill="#fff"/>
      <path id="Path_1777" data-name="Path 1777" d="M383.532,312.65a.319.319,0,0,1,.319.319.311.311,0,0,1-.621,0A.319.319,0,0,1,383.532,312.65Zm0,1.679a.319.319,0,0,1,.319.319.311.311,0,0,1-.621,0A.319.319,0,0,1,383.532,314.329Z" transform="translate(160.803 61.708)" fill="#fff"/>
      <path id="Path_1778" data-name="Path 1778" d="M385.356,313.409a1.058,1.058,0,0,1,0,1.478,1.007,1.007,0,0,1-1.478,0,.237.237,0,0,1,.336-.336.521.521,0,0,0,.4.168.571.571,0,0,0,0-1.142.2.2,0,0,1-.168-.084h0a.252.252,0,0,1,0-.336l.42-.437h-.739a.235.235,0,1,1,0-.47h1.242a.29.29,0,0,1,.235.336l-.537.554a.958.958,0,0,1,.285.269Z" transform="translate(161.196 61.436)" fill="#fff"/>
      <path id="Path_1779" data-name="Path 1779" d="M386.853,313.409a1.058,1.058,0,0,1,0,1.478.991.991,0,0,1-.739.319h0a.991.991,0,0,1-.722-.319.218.218,0,0,1,0-.336.252.252,0,0,1,.336,0,.521.521,0,0,0,.4.168.554.554,0,0,0,.4-.168.588.588,0,0,0,.168-.4.571.571,0,0,0-.571-.571.521.521,0,0,0-.4.168.218.218,0,0,1-.336,0h0v-.235l.118-1.091a.235.235,0,0,1,.118-.168H387a.235.235,0,0,1,0,.47h-1.041v.42a.837.837,0,0,1,.285,0,1.041,1.041,0,0,1,.6.269Z" transform="translate(162.218 61.436)" fill="#fff"/>
    </g>
    <g id="freepik--Button--inject-2" transform="translate(261.253 197.538)">
      <circle id="Ellipse_71" data-name="Ellipse 71" cx="61.131" cy="61.131" r="61.131" transform="translate(22.525 22.631)" fill="#ef5a5a"/>
      <path id="Path_1780" data-name="Path 1780" d="M221.261,279.52a1.679,1.679,0,0,1-.907-.252,72.011,72.011,0,0,1-24.882-95.818,1.729,1.729,0,0,1,3.022,1.679,68.535,68.535,0,0,0,23.673,91.218,1.714,1.714,0,0,1-.907,3.173Z" transform="translate(-174.811 -134.476)" fill="#ef5a5a"/>
      <path id="Path_1781" data-name="Path 1781" d="M238.059,252.361a72.2,72.2,0,0,1-20.248-2.888,1.724,1.724,0,1,1,.974-3.308,68.636,68.636,0,0,0,55.59-7.639,1.724,1.724,0,1,1,1.83,2.921,71.826,71.826,0,0,1-38.146,10.913Z" transform="translate(-154.403 -96.656)" fill="#ef5a5a"/>
      <path id="Path_1782" data-name="Path 1782" d="M257.772,258.837a1.721,1.721,0,0,1-1.142-3.022,68.334,68.334,0,0,0,23.136-51.309,1.721,1.721,0,0,1,3.442,0A71.775,71.775,0,0,1,258.913,258.4,1.679,1.679,0,0,1,257.772,258.837Z" transform="translate(-127.609 -120.744)" fill="#ef5a5a"/>
      <path id="Path_1783" data-name="Path 1783" d="M272.446,199.936a1.679,1.679,0,0,1-1.679-1.242,66.928,66.928,0,0,0-5.339-13.062,1.736,1.736,0,0,1,3.039-1.679,72.367,72.367,0,0,1,5.608,13.734,1.679,1.679,0,0,1-1.175,2.132A1.545,1.545,0,0,1,272.446,199.936Z" transform="translate(-121.38 -134.139)" fill="#ef5a5a"/>
      <path id="Path_1784" data-name="Path 1784" d="M197.8,189.961a1.695,1.695,0,0,1-1.326-2.8,71.91,71.91,0,0,1,110.811-.269,1.723,1.723,0,1,1-2.653,2.2,68.451,68.451,0,0,0-105.489.252,1.679,1.679,0,0,1-1.343.621Z" transform="translate(-168.328 -149.147)" fill="#ef5a5a"/>
      <path id="Path_1785" data-name="Path 1785" d="M316.335,216.645a1.679,1.679,0,0,1-1.679-1.226,80.405,80.405,0,0,0-95.247-55.976,1.721,1.721,0,1,1-.756-3.358A83.713,83.713,0,0,1,317.947,214.5a1.679,1.679,0,0,1-1.158,2.082A2.116,2.116,0,0,1,316.335,216.645Z" transform="translate(-153.903 -153.921)" fill="#ef5a5a"/>
      <path id="Path_1786" data-name="Path 1786" d="M182.483,216.788H182.1a1.679,1.679,0,0,1-1.259-2.015,83.948,83.948,0,0,1,41.386-54.583,1.7,1.7,0,0,1,1.679,2.955,80.472,80.472,0,0,0-39.791,52.283A1.679,1.679,0,0,1,182.483,216.788Z" transform="translate(-178.695 -149.815)" fill="#ef5a5a"/>
      <path id="Path_1787" data-name="Path 1787" d="M205.242,266.157a1.679,1.679,0,0,1-1.192-.487A83.5,83.5,0,0,1,179.705,201.4a1.682,1.682,0,1,1,3.358.2,80.12,80.12,0,0,0,23.354,61.7,1.671,1.671,0,0,1-1.175,2.854Z" transform="translate(-179.544 -122.758)" fill="#ef5a5a"/>
      <path id="Path_1788" data-name="Path 1788" d="M222.152,255.524a1.544,1.544,0,0,1-.487,0,82.157,82.157,0,0,1-15.9-6.716,1.692,1.692,0,1,1,1.679-2.938,80.671,80.671,0,0,0,15.262,6.414,1.656,1.656,0,0,1-.554,3.24Z" transform="translate(-162.32 -91.642)" fill="#ef5a5a"/>
      <path id="Path_1789" data-name="Path 1789" d="M233.1,291.325c-2.535,0-5.037-.118-7.639-.353a1.677,1.677,0,1,1,.3-3.341,80.237,80.237,0,0,0,87.306-87.659,1.678,1.678,0,0,1,3.341-.319,83.663,83.663,0,0,1-83.226,91.671Z" transform="translate(-149.411 -123.901)" fill="#ef5a5a"/>
      <path id="Path_1790" data-name="Path 1790" d="M216.09,236.632V189.89l54.264,23.371Z" transform="translate(-154.731 -129.499)" fill="#fff"/>
    </g>
  </g>
</svg>
