<svg width="1240" height="672" viewBox="0 0 1240 672" fill="none" xmlns="http://www.w3.org/2000/svg">
<g opacity="0.4">
<path opacity="0.33" d="M746.203 533.953V654.483L729.773 670.903H643.183V533.953H746.203Z" fill="white" stroke="#374850" stroke-linecap="round" stroke-linejoin="round"/>
<path opacity="0.33" d="M746.193 533.953H643.183V545.623H746.193V533.953Z" fill="#711DC8" stroke="#374850" stroke-linecap="round" stroke-linejoin="round"/>
<path opacity="0.33" d="M746.273 654.413L729.773 670.903V654.413H746.273Z" fill="#BFBFBF" stroke="#374850" stroke-linecap="round" stroke-linejoin="round"/>
<path opacity="0.3" d="M694.693 542.423L695.833 546.283C695.833 546.283 692.933 548.233 694.693 549.643L696.453 551.053C696.453 551.053 695.263 555.183 697.243 556.273C699.223 557.363 705.753 555.943 707.333 553.503C708.913 551.063 703.463 548.553 703.463 548.553C703.463 548.553 705.063 546.553 704.173 545.623C703.283 544.693 700.113 545.093 700.113 545.093L697.943 541.433L694.693 542.423Z" fill="black" fill-opacity="0.7"/>
<path opacity="0.33" d="M695.833 540.033C699.887 540.033 703.173 536.953 703.173 533.153C703.173 529.354 699.887 526.273 695.833 526.273C691.779 526.273 688.493 529.354 688.493 533.153C688.493 536.953 691.779 540.033 695.833 540.033Z" fill="#374850"/>
<path opacity="0.33" d="M702.603 538.943C702.603 541.703 699.603 543.943 695.833 543.943C692.063 543.943 689.063 541.713 689.063 538.943C689.063 536.173 692.063 533.943 695.833 533.943C699.603 533.943 702.603 536.183 702.603 538.943Z" fill="#374850"/>
<path opacity="0.33" d="M699.873 537.693C700.686 537.115 701.345 536.345 701.793 535.453" stroke="white" stroke-linecap="round" stroke-linejoin="round"/>
<path opacity="0.33" d="M690.023 535.753C690.653 536.724 691.513 537.523 692.527 538.08C693.541 538.636 694.677 538.933 695.833 538.943" stroke="white" stroke-linecap="round" stroke-linejoin="round"/>
<path opacity="0.33" d="M740.223 562.413H649.163V617.803H740.223V562.413Z" fill="#374850" stroke="#374850" stroke-linecap="round" stroke-linejoin="round"/>
<path opacity="0.33" d="M683.173 580.343V603.403L708.483 591.873L683.173 580.343Z" fill="#711DC8" stroke="#374850" stroke-linecap="round" stroke-linejoin="round"/>
<path opacity="0.33" d="M682.023 553.903H649.883C649.7 553.903 649.525 553.976 649.395 554.106C649.266 554.235 649.193 554.41 649.193 554.593C649.193 554.776 649.266 554.952 649.395 555.081C649.525 555.211 649.7 555.283 649.883 555.283H682.023C682.206 555.283 682.382 555.211 682.511 555.081C682.64 554.952 682.713 554.776 682.713 554.593C682.713 554.41 682.64 554.235 682.511 554.106C682.382 553.976 682.206 553.903 682.023 553.903V553.903Z" fill="#374850"/>
<path opacity="0.33" d="M739.023 636.903H649.883C649.7 636.903 649.525 636.976 649.395 637.106C649.266 637.235 649.193 637.41 649.193 637.593C649.193 637.776 649.266 637.952 649.395 638.081C649.525 638.211 649.7 638.283 649.883 638.283H739.023C739.206 638.283 739.382 638.211 739.511 638.081C739.64 637.952 739.713 637.776 739.713 637.593C739.713 637.41 739.64 637.235 739.511 637.106C739.382 636.976 739.206 636.903 739.023 636.903Z" fill="#374850"/>
<path opacity="0.33" d="M739.023 642.903H649.883C649.7 642.903 649.525 642.976 649.395 643.106C649.266 643.235 649.193 643.41 649.193 643.593C649.193 643.776 649.266 643.952 649.395 644.081C649.525 644.211 649.7 644.283 649.883 644.283H739.023C739.114 644.283 739.203 644.266 739.287 644.231C739.371 644.196 739.447 644.145 739.511 644.081C739.575 644.017 739.626 643.941 739.661 643.857C739.695 643.774 739.713 643.684 739.713 643.593C739.713 643.503 739.695 643.413 739.661 643.329C739.626 643.246 739.575 643.17 739.511 643.106C739.447 643.041 739.371 642.991 739.287 642.956C739.203 642.921 739.114 642.903 739.023 642.903V642.903Z" fill="#374850"/>
<path opacity="0.33" d="M739.023 648.903H649.883C649.7 648.903 649.525 648.976 649.395 649.106C649.266 649.235 649.193 649.41 649.193 649.593C649.193 649.776 649.266 649.952 649.395 650.081C649.525 650.211 649.7 650.283 649.883 650.283H739.023C739.206 650.283 739.382 650.211 739.511 650.081C739.64 649.952 739.713 649.776 739.713 649.593C739.713 649.41 739.64 649.235 739.511 649.106C739.382 648.976 739.206 648.903 739.023 648.903V648.903Z" fill="#374850"/>
<path opacity="0.33" d="M719.023 654.903H649.883C649.7 654.903 649.525 654.976 649.395 655.106C649.266 655.235 649.193 655.41 649.193 655.593C649.193 655.776 649.266 655.952 649.395 656.081C649.525 656.211 649.7 656.283 649.883 656.283H719.023C719.206 656.283 719.382 656.211 719.511 656.081C719.64 655.952 719.713 655.776 719.713 655.593C719.713 655.41 719.64 655.235 719.511 655.106C719.382 654.976 719.206 654.903 719.023 654.903Z" fill="#374850"/>
<path opacity="0.33" d="M739.023 630.903H649.883C649.7 630.903 649.525 630.976 649.395 631.106C649.266 631.235 649.193 631.41 649.193 631.593C649.193 631.776 649.266 631.952 649.395 632.081C649.525 632.211 649.7 632.283 649.883 632.283H739.023C739.206 632.283 739.382 632.211 739.511 632.081C739.64 631.952 739.713 631.776 739.713 631.593C739.713 631.41 739.64 631.235 739.511 631.106C739.382 630.976 739.206 630.903 739.023 630.903V630.903Z" fill="#374850"/>
<path opacity="0.33" d="M682.023 623.903H649.883C649.7 623.903 649.525 623.976 649.395 624.106C649.266 624.235 649.193 624.41 649.193 624.593C649.193 624.776 649.266 624.952 649.395 625.081C649.525 625.211 649.7 625.283 649.883 625.283H682.023C682.206 625.283 682.382 625.211 682.511 625.081C682.64 624.952 682.713 624.776 682.713 624.593C682.713 624.41 682.64 624.235 682.511 624.106C682.382 623.976 682.206 623.903 682.023 623.903V623.903Z" fill="#374850"/>
<path opacity="0.33" d="M740.223 614.003H649.163V617.803H740.223V614.003Z" fill="#BFBFBF" stroke="#374850" stroke-linecap="round" stroke-linejoin="round"/>
<path opacity="0.33" d="M698.773 614.003H649.163V617.803H698.773V614.003Z" fill="#711DC8" stroke="#374850" stroke-linecap="round" stroke-linejoin="round"/>
<path opacity="0.33" d="M104.02 7.68353V128.214L87.6 144.634H1V7.68353H104.02Z" fill="white" stroke="#374850" stroke-linecap="round" stroke-linejoin="round"/>
<path opacity="0.33" d="M43.58 26.1635H7.79002C7.6889 26.1635 7.58877 26.1834 7.49535 26.2221C7.40193 26.2608 7.31705 26.3175 7.24554 26.389C7.17404 26.4605 7.11732 26.5454 7.07863 26.6389C7.03993 26.7323 7.02002 26.8324 7.02002 26.9335C7.02002 27.0346 7.03993 27.1348 7.07863 27.2282C7.11732 27.3216 7.17404 27.4065 7.24554 27.478C7.31705 27.5495 7.40193 27.6062 7.49535 27.6449C7.58877 27.6836 7.6889 27.7035 7.79002 27.7035H43.58C43.7842 27.7035 43.9801 27.6224 44.1245 27.478C44.2689 27.3336 44.35 27.1377 44.35 26.9335C44.35 26.7293 44.2689 26.5334 44.1245 26.389C43.9801 26.2446 43.7842 26.1635 43.58 26.1635V26.1635Z" fill="#374850"/>
<path opacity="0.33" d="M64.93 65.2735H33.54C33.4389 65.2735 33.3388 65.2934 33.2454 65.3321C33.1519 65.3708 33.067 65.4276 32.9955 65.4991C32.924 65.5706 32.8673 65.6554 32.8286 65.7489C32.7899 65.8423 32.77 65.9424 32.77 66.0435C32.77 66.1447 32.7899 66.2448 32.8286 66.3382C32.8673 66.4316 32.924 66.5165 32.9955 66.588C33.067 66.6595 33.1519 66.7162 33.2454 66.7549C33.3388 66.7936 33.4389 66.8135 33.54 66.8135H64.93C65.1342 66.8135 65.3301 66.7324 65.4745 66.588C65.6189 66.4436 65.7 66.2477 65.7 66.0435C65.7 65.8393 65.6189 65.6435 65.4745 65.4991C65.3301 65.3547 65.1342 65.2735 64.93 65.2735V65.2735Z" fill="#374850"/>
<path opacity="0.33" d="M64.9301 70.5935H33.1301C32.9259 70.5935 32.73 70.6747 32.5856 70.8191C32.4412 70.9635 32.3601 71.1593 32.3601 71.3635C32.3601 71.5677 32.4412 71.7636 32.5856 71.908C32.73 72.0524 32.9259 72.1335 33.1301 72.1335H64.9301C65.1343 72.1335 65.3302 72.0524 65.4746 71.908C65.619 71.7636 65.7001 71.5677 65.7001 71.3635C65.7001 71.1593 65.619 70.9635 65.4746 70.8191C65.3302 70.6747 65.1343 70.5935 64.9301 70.5935V70.5935Z" fill="#374850"/>
<path opacity="0.33" d="M64.9301 75.9535H33.1301C32.9259 75.9535 32.73 76.0347 32.5856 76.1791C32.4412 76.3235 32.3601 76.5193 32.3601 76.7235C32.3601 76.9277 32.4412 77.1236 32.5856 77.268C32.73 77.4124 32.9259 77.4935 33.1301 77.4935H64.9301C65.1343 77.4935 65.3302 77.4124 65.4746 77.268C65.619 77.1236 65.7001 76.9277 65.7001 76.7235C65.7001 76.5193 65.619 76.3235 65.4746 76.1791C65.3302 76.0347 65.1343 75.9535 64.9301 75.9535V75.9535Z" fill="#374850"/>
<path opacity="0.33" d="M54.8001 81.3235H33.1301C33.029 81.3235 32.9289 81.3435 32.8354 81.3822C32.742 81.4209 32.6571 81.4776 32.5856 81.5491C32.5141 81.6206 32.4574 81.7055 32.4187 81.7989C32.38 81.8923 32.3601 81.9924 32.3601 82.0936C32.3601 82.1947 32.38 82.2948 32.4187 82.3882C32.4574 82.4816 32.5141 82.5665 32.5856 82.638C32.6571 82.7095 32.742 82.7662 32.8354 82.8049C32.9289 82.8436 33.029 82.8635 33.1301 82.8635H54.8001C55.0043 82.8635 55.2002 82.7824 55.3446 82.638C55.489 82.4936 55.5701 82.2978 55.5701 82.0936C55.5701 81.8893 55.489 81.6935 55.3446 81.5491C55.2002 81.4047 55.0043 81.3235 54.8001 81.3235V81.3235Z" fill="#374850"/>
<path opacity="0.33" d="M64.93 90.0435H20.54C20.3358 90.0435 20.1399 90.1246 19.9955 90.269C19.8511 90.4134 19.77 90.6093 19.77 90.8135C19.77 91.0177 19.8511 91.2136 19.9955 91.358C20.1399 91.5024 20.3358 91.5835 20.54 91.5835H64.93C65.1342 91.5835 65.3301 91.5024 65.4745 91.358C65.6189 91.2136 65.7 91.0177 65.7 90.8135C65.7 90.6093 65.6189 90.4134 65.4745 90.269C65.3301 90.1246 65.1342 90.0435 64.93 90.0435V90.0435Z" fill="#374850"/>
<path opacity="0.33" d="M64.9301 95.4135H7.13011C6.92589 95.4135 6.73004 95.4946 6.58564 95.639C6.44124 95.7834 6.36011 95.9793 6.36011 96.1835C6.36011 96.3877 6.44124 96.5836 6.58564 96.728C6.73004 96.8724 6.92589 96.9535 7.13011 96.9535H64.9301C65.1343 96.9535 65.3302 96.8724 65.4746 96.728C65.619 96.5836 65.7001 96.3877 65.7001 96.1835C65.7001 95.9793 65.619 95.7834 65.4746 95.639C65.3302 95.4946 65.1343 95.4135 64.9301 95.4135V95.4135Z" fill="#374850"/>
<path opacity="0.33" d="M64.9301 100.774H7.13011C6.92589 100.774 6.73004 100.855 6.58564 100.999C6.44124 101.143 6.36011 101.339 6.36011 101.544C6.36011 101.748 6.44124 101.944 6.58564 102.088C6.73004 102.232 6.92589 102.314 7.13011 102.314H64.9301C65.1343 102.314 65.3302 102.232 65.4746 102.088C65.619 101.944 65.7001 101.748 65.7001 101.544C65.7001 101.339 65.619 101.143 65.4746 100.999C65.3302 100.855 65.1343 100.774 64.9301 100.774V100.774Z" fill="#374850"/>
<path opacity="0.33" d="M64.9301 106.144H7.13011C6.92589 106.144 6.73004 106.225 6.58564 106.369C6.44124 106.513 6.36011 106.709 6.36011 106.914C6.36011 107.118 6.44124 107.314 6.58564 107.458C6.73004 107.602 6.92589 107.684 7.13011 107.684H64.9301C65.1343 107.684 65.3302 107.602 65.4746 107.458C65.619 107.314 65.7001 107.118 65.7001 106.914C65.7001 106.709 65.619 106.513 65.4746 106.369C65.3302 106.225 65.1343 106.144 64.9301 106.144V106.144Z" fill="#374850"/>
<path opacity="0.33" d="M44.9301 111.514H7.13011C6.92589 111.514 6.73004 111.595 6.58564 111.739C6.44124 111.883 6.36011 112.079 6.36011 112.284C6.36011 112.488 6.44124 112.684 6.58564 112.828C6.73004 112.972 6.92589 113.054 7.13011 113.054H44.9301C45.1343 113.054 45.3302 112.972 45.4746 112.828C45.619 112.684 45.7001 112.488 45.7001 112.284C45.7001 112.079 45.619 111.883 45.4746 111.739C45.3302 111.595 45.1343 111.514 44.9301 111.514V111.514Z" fill="#374850"/>
<path opacity="0.33" d="M64.93 120.044H20.54C20.3358 120.044 20.1399 120.125 19.9955 120.269C19.8511 120.413 19.77 120.609 19.77 120.814C19.77 121.018 19.8511 121.214 19.9955 121.358C20.1399 121.502 20.3358 121.584 20.54 121.584H64.93C65.1342 121.584 65.3301 121.502 65.4745 121.358C65.6189 121.214 65.7 121.018 65.7 120.814C65.7 120.609 65.6189 120.413 65.4745 120.269C65.3301 120.125 65.1342 120.044 64.93 120.044V120.044Z" fill="#374850"/>
<path opacity="0.33" d="M64.9301 125.414H7.13011C6.92589 125.414 6.73004 125.495 6.58564 125.639C6.44124 125.784 6.36011 125.979 6.36011 126.184C6.36011 126.388 6.44124 126.584 6.58564 126.728C6.73004 126.872 6.92589 126.954 7.13011 126.954H64.9301C65.1343 126.954 65.3302 126.872 65.4746 126.728C65.619 126.584 65.7001 126.388 65.7001 126.184C65.7001 125.979 65.619 125.784 65.4746 125.639C65.3302 125.495 65.1343 125.414 64.9301 125.414V125.414Z" fill="#374850"/>
<path opacity="0.33" d="M44.9301 130.774H7.13011C6.92589 130.774 6.73004 130.855 6.58564 130.999C6.44124 131.143 6.36011 131.339 6.36011 131.544C6.36011 131.748 6.44124 131.944 6.58564 132.088C6.73004 132.232 6.92589 132.314 7.13011 132.314H44.9301C45.1343 132.314 45.3302 132.232 45.4746 132.088C45.619 131.944 45.7001 131.748 45.7001 131.544C45.7001 131.339 45.619 131.143 45.4746 130.999C45.3302 130.855 45.1343 130.774 44.9301 130.774V130.774Z" fill="#374850"/>
<path opacity="0.33" d="M104.02 7.68353H1.01001V19.3535H104.02V7.68353Z" fill="#711DC8" stroke="#374850" stroke-linecap="round" stroke-linejoin="round"/>
<path opacity="0.3" d="M52.51 16.1535L53.65 20.0135C53.65 20.0135 50.75 21.9635 52.51 23.3735L54.27 24.7835C54.27 24.7835 53.09 28.9135 55.07 30.0035C57.05 31.0935 63.57 29.6735 65.15 27.2335C66.73 24.7935 61.28 22.2335 61.28 22.2335C61.28 22.2335 62.88 20.2335 61.99 19.3035C61.1 18.3735 57.93 18.7735 57.93 18.7735L55.76 15.1135L52.51 16.1535Z" fill="black" fill-opacity="0.7"/>
<path opacity="0.33" d="M61 6.88354C61.0962 8.35628 60.7475 9.82396 59.999 11.096C59.2506 12.368 58.137 13.3856 56.8028 14.0167C55.4687 14.6478 53.9756 14.8632 52.5174 14.635C51.0593 14.4067 49.7035 13.7454 48.626 12.7368C47.5485 11.7282 46.7991 10.419 46.4752 8.97907C46.1512 7.53918 46.2676 6.03514 46.8093 4.66225C47.351 3.28936 48.2929 2.11103 49.5128 1.28027C50.7326 0.449499 52.1741 0.00466842 53.65 0.00353168C55.5362 -0.055825 57.369 0.635024 58.7467 1.92466C60.1245 3.21429 60.9348 4.99752 61 6.88354V6.88354Z" fill="#374850"/>
<path opacity="0.33" d="M53.6499 17.6635C57.3889 17.6635 60.4199 15.4294 60.4199 12.6735C60.4199 9.91763 57.3889 7.68353 53.6499 7.68353C49.9109 7.68353 46.8799 9.91763 46.8799 12.6735C46.8799 15.4294 49.9109 17.6635 53.6499 17.6635Z" fill="#374850"/>
<path opacity="0.33" d="M57.6899 11.4135C58.498 10.8333 59.1562 10.0689 59.6099 9.18353" stroke="white" stroke-linecap="round" stroke-linejoin="round"/>
<path opacity="0.33" d="M47.8501 9.47351C48.4729 10.4487 49.3299 11.2524 50.343 11.8114C51.3561 12.3703 52.493 12.6667 53.6501 12.6735" stroke="white" stroke-linecap="round" stroke-linejoin="round"/>
<path opacity="0.33" d="M72.8101 22.7635V141.554" stroke="#374850" stroke-linecap="round" stroke-linejoin="round"/>
<path opacity="0.33" d="M97.69 26.1635H78.3C78.1989 26.1635 78.0988 26.1834 78.0054 26.2221C77.912 26.2608 77.8271 26.3175 77.7556 26.389C77.6841 26.4605 77.6273 26.5454 77.5886 26.6389C77.5499 26.7323 77.53 26.8324 77.53 26.9335C77.53 27.0346 77.5499 27.1348 77.5886 27.2282C77.6273 27.3216 77.6841 27.4065 77.7556 27.478C77.8271 27.5495 77.912 27.6062 78.0054 27.6449C78.0988 27.6836 78.1989 27.7035 78.3 27.7035H97.69C97.8942 27.7035 98.0901 27.6224 98.2345 27.478C98.3789 27.3336 98.46 27.1377 98.46 26.9335C98.46 26.7293 98.3789 26.5334 98.2345 26.389C98.0901 26.2446 97.8942 26.1635 97.69 26.1635V26.1635Z" fill="#374850"/>
<path opacity="0.33" d="M97.69 34.1635H78.3C78.0958 34.1635 77.9 34.2446 77.7556 34.389C77.6112 34.5334 77.53 34.7293 77.53 34.9335C77.53 35.1377 77.6112 35.3336 77.7556 35.478C77.9 35.6224 78.0958 35.7035 78.3 35.7035H97.69C97.8942 35.7035 98.0901 35.6224 98.2345 35.478C98.3789 35.3336 98.46 35.1377 98.46 34.9335C98.46 34.7293 98.3789 34.5334 98.2345 34.389C98.0901 34.2446 97.8942 34.1635 97.69 34.1635V34.1635Z" fill="#374850"/>
<path opacity="0.33" d="M97.69 42.1135H78.3C78.0958 42.1135 77.9 42.1946 77.7556 42.3391C77.6112 42.4835 77.53 42.6793 77.53 42.8835C77.53 43.0877 77.6112 43.2836 77.7556 43.428C77.9 43.5724 78.0958 43.6535 78.3 43.6535H97.69C97.8942 43.6535 98.0901 43.5724 98.2345 43.428C98.3789 43.2836 98.46 43.0877 98.46 42.8835C98.46 42.6793 98.3789 42.4835 98.2345 42.3391C98.0901 42.1946 97.8942 42.1135 97.69 42.1135Z" fill="#374850"/>
<path opacity="0.33" d="M97.69 50.0635H78.3C78.0958 50.0635 77.9 50.1447 77.7556 50.2891C77.6112 50.4335 77.53 50.6293 77.53 50.8335C77.53 51.0378 77.6112 51.2336 77.7556 51.378C77.9 51.5224 78.0958 51.6035 78.3 51.6035H97.69C97.8942 51.6035 98.0901 51.5224 98.2345 51.378C98.3789 51.2336 98.46 51.0378 98.46 50.8335C98.46 50.6293 98.3789 50.4335 98.2345 50.2891C98.0901 50.1447 97.8942 50.0635 97.69 50.0635V50.0635Z" fill="#374850"/>
<path opacity="0.33" d="M97.69 58.0135H78.3C78.0958 58.0135 77.9 58.0947 77.7556 58.2391C77.6112 58.3835 77.53 58.5793 77.53 58.7835C77.53 58.9878 77.6112 59.1836 77.7556 59.328C77.9 59.4724 78.0958 59.5535 78.3 59.5535H97.69C97.8942 59.5535 98.0901 59.4724 98.2345 59.328C98.3789 59.1836 98.46 58.9878 98.46 58.7835C98.46 58.5793 98.3789 58.3835 98.2345 58.2391C98.0901 58.0947 97.8942 58.0135 97.69 58.0135Z" fill="#374850"/>
<path opacity="0.33" d="M97.69 65.9635H78.3C78.0958 65.9635 77.9 66.0447 77.7556 66.1891C77.6112 66.3335 77.53 66.5293 77.53 66.7335C77.53 66.9378 77.6112 67.1336 77.7556 67.278C77.9 67.4224 78.0958 67.5035 78.3 67.5035H97.69C97.8942 67.5035 98.0901 67.4224 98.2345 67.278C98.3789 67.1336 98.46 66.9378 98.46 66.7335C98.46 66.5293 98.3789 66.3335 98.2345 66.1891C98.0901 66.0447 97.8942 65.9635 97.69 65.9635V65.9635Z" fill="#374850"/>
<path opacity="0.33" d="M97.69 73.9135H78.3C78.1989 73.9135 78.0988 73.9334 78.0054 73.9721C77.912 74.0108 77.8271 74.0675 77.7556 74.139C77.6841 74.2105 77.6273 74.2954 77.5886 74.3889C77.5499 74.4823 77.53 74.5824 77.53 74.6835C77.53 74.7846 77.5499 74.8848 77.5886 74.9782C77.6273 75.0716 77.6841 75.1565 77.7556 75.228C77.8271 75.2995 77.912 75.3562 78.0054 75.3949C78.0988 75.4336 78.1989 75.4535 78.3 75.4535H97.69C97.7912 75.4535 97.8913 75.4336 97.9847 75.3949C98.0781 75.3562 98.163 75.2995 98.2345 75.228C98.306 75.1565 98.3627 75.0716 98.4014 74.9782C98.4401 74.8848 98.46 74.7846 98.46 74.6835C98.46 74.5824 98.4401 74.4823 98.4014 74.3889C98.3627 74.2954 98.306 74.2105 98.2345 74.139C98.163 74.0675 98.0781 74.0108 97.9847 73.9721C97.8913 73.9334 97.7912 73.9135 97.69 73.9135V73.9135Z" fill="#374850"/>
<path opacity="0.33" d="M97.69 81.8635H78.3C78.0958 81.8635 77.9 81.9446 77.7556 82.0891C77.6112 82.2335 77.53 82.4293 77.53 82.6335C77.53 82.8377 77.6112 83.0336 77.7556 83.178C77.9 83.3224 78.0958 83.4035 78.3 83.4035H97.69C97.8942 83.4035 98.0901 83.3224 98.2345 83.178C98.3789 83.0336 98.46 82.8377 98.46 82.6335C98.46 82.4293 98.3789 82.2335 98.2345 82.0891C98.0901 81.9446 97.8942 81.8635 97.69 81.8635V81.8635Z" fill="#374850"/>
<path opacity="0.33" d="M97.69 89.8135H78.3C78.1989 89.8135 78.0988 89.8335 78.0054 89.8722C77.912 89.9109 77.8271 89.9676 77.7556 90.0391C77.6841 90.1106 77.6273 90.1955 77.5886 90.2889C77.5499 90.3823 77.53 90.4824 77.53 90.5835C77.53 90.6847 77.5499 90.7848 77.5886 90.8782C77.6273 90.9716 77.6841 91.0565 77.7556 91.128C77.8271 91.1995 77.912 91.2562 78.0054 91.2949C78.0988 91.3336 78.1989 91.3535 78.3 91.3535H97.69C97.8942 91.3535 98.0901 91.2724 98.2345 91.128C98.3789 90.9836 98.46 90.7878 98.46 90.5835C98.46 90.3793 98.3789 90.1835 98.2345 90.0391C98.0901 89.8947 97.8942 89.8135 97.69 89.8135Z" fill="#374850"/>
<path opacity="0.33" d="M97.69 97.7635H78.3C78.0958 97.7635 77.9 97.8447 77.7556 97.9891C77.6112 98.1335 77.53 98.3293 77.53 98.5335C77.53 98.7378 77.6112 98.9336 77.7556 99.078C77.9 99.2224 78.0958 99.3035 78.3 99.3035H97.69C97.8942 99.3035 98.0901 99.2224 98.2345 99.078C98.3789 98.9336 98.46 98.7378 98.46 98.5335C98.46 98.3293 98.3789 98.1335 98.2345 97.9891C98.0901 97.8447 97.8942 97.7635 97.69 97.7635Z" fill="#374850"/>
<path opacity="0.33" d="M97.69 105.714H78.3C78.0958 105.714 77.9 105.795 77.7556 105.939C77.6112 106.083 77.53 106.279 77.53 106.483C77.53 106.688 77.6112 106.884 77.7556 107.028C77.9 107.172 78.0958 107.254 78.3 107.254H97.69C97.8942 107.254 98.0901 107.172 98.2345 107.028C98.3789 106.884 98.46 106.688 98.46 106.483C98.46 106.279 98.3789 106.083 98.2345 105.939C98.0901 105.795 97.8942 105.714 97.69 105.714Z" fill="#374850"/>
<path opacity="0.33" d="M97.69 113.664H78.3C78.0958 113.664 77.9 113.745 77.7556 113.889C77.6112 114.034 77.53 114.229 77.53 114.434C77.53 114.638 77.6112 114.834 77.7556 114.978C77.9 115.122 78.0958 115.204 78.3 115.204H97.69C97.8942 115.204 98.0901 115.122 98.2345 114.978C98.3789 114.834 98.46 114.638 98.46 114.434C98.46 114.229 98.3789 114.034 98.2345 113.889C98.0901 113.745 97.8942 113.664 97.69 113.664Z" fill="#374850"/>
<path opacity="0.33" d="M97.69 121.614H78.3C78.0958 121.614 77.9 121.695 77.7556 121.839C77.6112 121.983 77.53 122.179 77.53 122.384C77.53 122.588 77.6112 122.784 77.7556 122.928C77.9 123.072 78.0958 123.154 78.3 123.154H97.69C97.8942 123.154 98.0901 123.072 98.2345 122.928C98.3789 122.784 98.46 122.588 98.46 122.384C98.46 122.179 98.3789 121.983 98.2345 121.839C98.0901 121.695 97.8942 121.614 97.69 121.614Z" fill="#374850"/>
<path opacity="0.33" d="M97.69 129.564H78.3C78.1096 129.585 77.9339 129.676 77.8063 129.819C77.6787 129.962 77.6082 130.147 77.6082 130.339C77.6082 130.53 77.6787 130.715 77.8063 130.858C77.9339 131.001 78.1096 131.092 78.3 131.114H97.69C97.8803 131.092 98.0561 131.001 98.1837 130.858C98.3113 130.715 98.3818 130.53 98.3818 130.339C98.3818 130.147 98.3113 129.962 98.1837 129.819C98.0561 129.676 97.8803 129.585 97.69 129.564V129.564Z" fill="#374850"/>
<path opacity="0.33" d="M104.09 128.144L87.6001 144.634V128.144H104.09Z" fill="#BFBFBF" stroke="#374850" stroke-linecap="round" stroke-linejoin="round"/>
<path opacity="0.33" d="M67.0099 33.0435H6.65991V58.7835H67.0099V33.0435Z" fill="#757575" stroke="#374850" stroke-linecap="round" stroke-linejoin="round"/>
<path opacity="0.33" d="M6.65991 48.6935L8.54991 45.9135L9.59991 46.6435L11.7099 42.8835L13.4699 47.3735L14.6099 46.6435L16.8599 51.6035L19.2299 45.9135L20.4099 47.2435L23.7099 38.6735L25.9699 45.1335H27.1399L28.9899 49.0835L30.6299 45.9135L32.4099 50.8335L36.8299 41.5735L39.2699 46.6435L40.0599 45.1335L40.8599 45.9135L44.3499 37.0835L49.2899 50.7835L51.9399 46.1935L52.5099 48.2935L54.9699 43.6535L56.9399 47.2435L58.6599 44.3435L60.9999 48.5635L64.5899 40.2535L65.6999 42.1135L67.0099 38.5135V58.7835H6.65991V48.6935Z" fill="#999999" stroke="#374850" stroke-linecap="round" stroke-linejoin="round"/>
<path opacity="0.33" d="M27.54 73.8135V73.8935C27.5162 76.4884 26.4674 78.9687 24.6221 80.7933C22.7769 82.618 20.285 83.6389 17.69 83.6335C15.6353 83.6396 13.632 82.9916 11.97 81.7835C10.606 80.7985 9.51768 79.4799 8.80935 77.9538C8.10101 76.4277 7.79636 74.7452 7.92457 73.0677C8.05279 71.3901 8.60958 69.7735 9.54161 68.3728C10.4736 66.972 11.7497 65.834 13.2476 65.0678C14.7454 64.3016 16.4149 63.9327 18.0962 63.9966C19.7775 64.0605 21.4142 64.555 22.8496 65.4327C24.285 66.3105 25.471 67.542 26.294 69.0094C27.117 70.4769 27.5495 72.131 27.55 73.8135H27.54Z" fill="white" stroke="#374850" stroke-linecap="round" stroke-linejoin="round"/>
<path opacity="0.33" d="M27.54 73.8135C27.5387 75.1053 27.2828 76.3841 26.7869 77.5769C26.2911 78.7696 25.565 79.853 24.6502 80.765C23.7354 81.677 22.6499 82.3998 21.4556 82.892C20.2613 83.3842 18.9817 83.6362 17.69 83.6335C15.6353 83.6396 13.632 82.9916 11.97 81.7835L17.69 73.7835L27.14 71.0935C27.4045 71.976 27.5392 72.8923 27.54 73.8135V73.8135Z" fill="#BFBFBF" stroke="#374850" stroke-miterlimit="10"/>
<path opacity="0.33" d="M27.5399 73.8135V73.8935L17.6899 73.8135L22.5799 65.2735C24.8175 66.5395 26.4638 68.6387 27.1599 71.1135C27.4158 71.9906 27.5438 72.8999 27.5399 73.8135V73.8135Z" fill="#999999" stroke="#374850" stroke-linecap="round" stroke-linejoin="round"/>
<path opacity="0.33" d="M25.6899 68.0635L17.6899 73.7935V63.9635C19.251 63.9635 20.7898 64.3333 22.1804 65.0426C23.5709 65.752 24.7736 66.7807 25.6899 68.0445V68.0635Z" fill="#757575" stroke="#374850" stroke-linecap="round" stroke-linejoin="round"/>
<path opacity="0.33" d="M1226.23 147.104L1239.39 266.914L1224.86 285.034L1138.79 294.484L1123.83 158.354L1226.23 147.104Z" fill="white" stroke="#374850" stroke-linecap="round" stroke-linejoin="round"/>
<path opacity="0.33" d="M1225.16 146.509L1123.18 157.839L1124.47 169.392L1226.45 158.062L1225.16 146.509Z" fill="#711DC8" stroke="#374850" stroke-width="0.996" stroke-linecap="round" stroke-linejoin="round"/>
<path opacity="0.33" d="M1172.26 243.534L1140.32 247.034C1140.14 247.056 1139.97 247.149 1139.85 247.293C1139.74 247.437 1139.68 247.62 1139.7 247.804C1139.72 247.986 1139.82 248.152 1139.96 248.266C1140.1 248.381 1140.29 248.434 1140.47 248.414L1172.41 244.904C1172.5 244.898 1172.6 244.874 1172.68 244.832C1172.76 244.79 1172.84 244.732 1172.9 244.66C1172.96 244.589 1173 244.506 1173.03 244.416C1173.06 244.327 1173.07 244.233 1173.06 244.14C1173.05 244.047 1173.02 243.957 1172.97 243.875C1172.93 243.794 1172.86 243.723 1172.79 243.666C1172.71 243.609 1172.63 243.568 1172.54 243.546C1172.45 243.523 1172.35 243.519 1172.26 243.534V243.534Z" fill="#374850"/>
<path opacity="0.33" d="M1239.46 266.833L1224.86 285.033L1223.06 268.633L1239.46 266.833Z" fill="#BFBFBF" stroke="#374850" stroke-linecap="round" stroke-linejoin="round"/>
<path opacity="0.33" d="M1168.34 251.698L1140.48 254.759L1142.72 275.186L1170.59 272.125L1168.34 251.698Z" fill="#711DC8"/>
<g opacity="0.33">
<path opacity="0.5" d="M1168.34 251.697L1140.48 254.759L1142.72 275.186L1170.59 272.124L1168.34 251.697Z" fill="white" stroke="#374850" stroke-linecap="round" stroke-linejoin="round"/>
</g>
<path opacity="0.33" d="M1168.34 251.698L1140.48 254.759L1142.72 275.186L1170.59 272.125L1168.34 251.698Z" stroke="#374850" stroke-linecap="round" stroke-linejoin="round"/>
<path opacity="0.33" d="M1142.02 268.864C1142.02 268.864 1144.61 264.104 1147.18 263.814C1149.75 263.524 1154.11 268.934 1158.26 268.864C1162.41 268.794 1165.17 263.934 1169.91 266.024" stroke="#374850" stroke-linecap="round" stroke-linejoin="round"/>
<path opacity="0.33" d="M1161.35 256.224C1161.6 256.685 1161.74 257.203 1161.74 257.73C1161.74 258.257 1161.61 258.776 1161.36 259.24C1161.11 259.704 1160.75 260.099 1160.31 260.388C1159.87 260.676 1159.37 260.85 1158.84 260.894H1158.69C1158.96 261.389 1159.35 261.804 1159.83 262.096C1160.32 262.387 1160.87 262.544 1161.43 262.551C1161.99 262.558 1162.55 262.415 1163.04 262.136C1163.53 261.856 1163.93 261.451 1164.21 260.963C1164.49 260.474 1164.64 259.919 1164.63 259.356C1164.62 258.793 1164.47 258.242 1164.18 257.76C1163.89 257.277 1163.47 256.882 1162.98 256.613C1162.48 256.345 1161.92 256.214 1161.36 256.234L1161.35 256.224Z" stroke="#374850" stroke-linecap="round" stroke-linejoin="round"/>
<path opacity="0.33" d="M1199.62 248.121L1171.76 251.183L1174.01 271.61L1201.87 268.548L1199.62 248.121Z" fill="#711DC8"/>
<g opacity="0.33">
<path opacity="0.5" d="M1199.62 248.122L1171.76 251.183L1174.01 271.61L1201.87 268.549L1199.62 248.122Z" fill="white" stroke="#374850" stroke-linecap="round" stroke-linejoin="round"/>
</g>
<path opacity="0.33" d="M1199.62 248.121L1171.76 251.183L1174.01 271.61L1201.87 268.548L1199.62 248.121Z" stroke="#374850" stroke-linecap="round" stroke-linejoin="round"/>
<path opacity="0.33" d="M1172.96 262.054L1184.87 260.874L1191.13 264.534L1201.28 263.454" stroke="#374850" stroke-linecap="round" stroke-linejoin="round"/>
<path opacity="0.33" d="M1193.12 251.753L1194.31 253.443L1196.38 253.423L1195.14 255.083L1195.8 257.043L1193.84 256.373L1192.17 257.603L1192.21 255.533L1190.52 254.333L1192.5 253.723L1193.12 251.753Z" stroke="#374850" stroke-linecap="round" stroke-linejoin="round"/>
<path opacity="0.33" d="M1230.93 244.544L1203.06 247.605L1205.31 268.033L1233.17 264.971L1230.93 244.544Z" fill="#711DC8"/>
<g opacity="0.33">
<path opacity="0.5" d="M1230.93 244.544L1203.06 247.606L1205.31 268.033L1233.17 264.972L1230.93 244.544Z" fill="white" stroke="#374850" stroke-linecap="round" stroke-linejoin="round"/>
</g>
<path opacity="0.33" d="M1230.93 244.544L1203.06 247.605L1205.31 268.033L1233.17 264.971L1230.93 244.544Z" stroke="#374850" stroke-linecap="round" stroke-linejoin="round"/>
<path opacity="0.33" d="M1204.51 260.794L1232.24 257.644" stroke="#374850" stroke-linecap="round" stroke-linejoin="round"/>
<path opacity="0.33" d="M1227.3 250.904C1227.41 251.497 1227.34 252.109 1227.1 252.663C1226.87 253.218 1226.47 253.689 1225.97 254.018C1225.46 254.347 1224.87 254.519 1224.26 254.511C1223.66 254.504 1223.07 254.318 1222.58 253.977C1222.08 253.636 1221.69 253.156 1221.47 252.596C1221.25 252.036 1221.19 251.422 1221.32 250.832C1221.44 250.242 1221.74 249.702 1222.17 249.281C1222.6 248.859 1223.15 248.575 1223.74 248.464C1224.13 248.39 1224.54 248.395 1224.93 248.477C1225.32 248.56 1225.7 248.719 1226.03 248.946C1226.36 249.172 1226.64 249.462 1226.86 249.798C1227.08 250.134 1227.23 250.51 1227.3 250.904Z" stroke="#374850" stroke-linecap="round" stroke-linejoin="round"/>
<path opacity="0.33" d="M1222.17 164.753L1131.65 174.698L1138.94 241.048L1229.46 231.103L1222.17 164.753Z" fill="#711DC8"/>
<g opacity="0.33">
<path opacity="0.4" d="M1136.84 221.954L1158.59 200.854L1174.49 211.534L1183.77 202.544L1228.58 223.234L1229.44 231.104L1138.93 241.044L1136.84 221.954Z" fill="#757575"/>
<path opacity="0.4" d="M1209.69 186.534C1209.83 187.812 1209.59 189.103 1209 190.244C1208.4 191.384 1207.48 192.323 1206.36 192.942C1205.23 193.561 1203.95 193.832 1202.67 193.721C1201.38 193.609 1200.17 193.12 1199.16 192.316C1198.16 191.512 1197.42 190.428 1197.03 189.202C1196.64 187.976 1196.63 186.663 1196.99 185.428C1197.35 184.194 1198.06 183.094 1199.05 182.267C1200.03 181.44 1201.24 180.924 1202.52 180.784C1204.23 180.596 1205.95 181.096 1207.3 182.174C1208.64 183.253 1209.5 184.821 1209.69 186.534V186.534Z" fill="white"/>
<path opacity="0.33" d="M1136.84 221.954L1158.59 200.854L1174.49 211.534L1183.77 202.544L1228.58 223.234L1229.44 231.104L1138.93 241.044L1136.84 221.954Z" stroke="#374850" stroke-linecap="round" stroke-linejoin="round"/>
<path opacity="0.33" d="M1209.69 186.534C1209.83 187.812 1209.59 189.103 1209 190.244C1208.4 191.384 1207.48 192.323 1206.36 192.942C1205.23 193.561 1203.95 193.832 1202.67 193.721C1201.38 193.609 1200.17 193.12 1199.16 192.316C1198.16 191.512 1197.42 190.428 1197.03 189.202C1196.64 187.976 1196.63 186.663 1196.99 185.428C1197.35 184.194 1198.06 183.094 1199.05 182.267C1200.03 181.44 1201.24 180.924 1202.52 180.784C1204.23 180.596 1205.95 181.096 1207.3 182.174C1208.64 183.253 1209.5 184.821 1209.69 186.534V186.534Z" stroke="#374850" stroke-linecap="round" stroke-linejoin="round"/>
</g>
<path opacity="0.33" d="M1222.17 164.753L1131.65 174.698L1138.94 241.048L1229.46 231.103L1222.17 164.753Z" stroke="#374850" stroke-linecap="round" stroke-linejoin="round"/>
<path opacity="0.3" d="M1174.51 160.784L1175.65 164.644C1175.65 164.644 1172.75 166.644 1174.51 168.004L1176.27 169.414C1176.27 169.414 1175.09 173.544 1177.06 174.634C1179.03 175.724 1185.57 174.314 1187.15 171.864C1188.73 169.414 1183.28 166.864 1183.28 166.864C1183.28 166.864 1184.88 164.864 1183.99 163.934C1183.1 163.004 1179.93 163.404 1179.93 163.404L1177.76 159.744L1174.51 160.784Z" fill="black" fill-opacity="0.7"/>
<path opacity="0.33" d="M1175.65 158.394C1179.7 158.394 1182.99 155.314 1182.99 151.514C1182.99 147.714 1179.7 144.634 1175.65 144.634C1171.6 144.634 1168.31 147.714 1168.31 151.514C1168.31 155.314 1171.6 158.394 1175.65 158.394Z" fill="#374850"/>
<path opacity="0.33" d="M1182.42 157.304C1182.42 160.064 1179.42 162.304 1175.65 162.304C1171.88 162.304 1168.88 160.074 1168.88 157.304C1168.88 154.534 1171.88 152.304 1175.65 152.304C1179.42 152.304 1182.42 154.534 1182.42 157.304Z" fill="#374850"/>
<path opacity="0.33" d="M1179.69 156.053C1180.5 155.472 1181.15 154.704 1181.6 153.813" stroke="white" stroke-linecap="round" stroke-linejoin="round"/>
<path opacity="0.33" d="M1169.84 154.114C1170.47 155.09 1171.34 155.893 1172.36 156.449C1173.38 157.006 1174.53 157.3 1175.69 157.304" stroke="white" stroke-linecap="round" stroke-linejoin="round"/>
</g>
</svg>
