<svg width="640" height="452" viewBox="0 0 640 452" fill="none" xmlns="http://www.w3.org/2000/svg">
<path opacity="0.76" d="M583 0H56C38.3269 0 24 14.3269 24 32V353C24 370.673 38.3269 385 56 385H583C600.673 385 615 370.673 615 353V32C615 14.3269 600.673 0 583 0Z" fill="white"/>
<path d="M309.08 102.36C309.082 102.926 308.916 103.48 308.603 103.952C308.29 104.423 307.844 104.791 307.322 105.009C306.799 105.227 306.224 105.285 305.668 105.176C305.113 105.067 304.602 104.795 304.201 104.396C303.8 103.996 303.527 103.487 303.416 102.932C303.305 102.377 303.361 101.801 303.577 101.278C303.793 100.755 304.16 100.307 304.63 99.9927C305.101 99.678 305.654 99.51 306.22 99.51C306.977 99.51 307.703 99.81 308.239 100.344C308.775 100.878 309.077 101.603 309.08 102.36Z" fill="#DDDDDD"/>
<path d="M322.33 102.36H377.85" stroke="#AFAFAF" stroke-width="2" stroke-linecap="round" stroke-linejoin="round"/>
<path d="M309.08 115.59C309.078 116.249 308.847 116.887 308.428 117.395C308.008 117.903 307.426 118.25 306.779 118.377C306.133 118.504 305.462 118.403 304.882 118.091C304.301 117.78 303.847 117.276 303.595 116.667C303.344 116.058 303.312 115.38 303.504 114.75C303.696 114.12 304.1 113.575 304.648 113.21C305.197 112.844 305.855 112.68 306.51 112.744C307.166 112.809 307.779 113.099 308.245 113.565C308.511 113.831 308.721 114.147 308.864 114.494C309.007 114.842 309.081 115.214 309.08 115.59Z" fill="#DDDDDD"/>
<path d="M322.33 115.59H343.73" stroke="#AFAFAF" stroke-width="2" stroke-linecap="round" stroke-linejoin="round"/>
<path d="M144.96 102.36C144.962 102.926 144.796 103.48 144.483 103.952C144.17 104.423 143.724 104.791 143.202 105.009C142.679 105.227 142.104 105.285 141.548 105.176C140.993 105.067 140.482 104.795 140.081 104.396C139.68 103.996 139.407 103.487 139.296 102.932C139.185 102.377 139.241 101.801 139.457 101.278C139.673 100.755 140.04 100.307 140.51 99.9927C140.981 99.678 141.534 99.51 142.1 99.51C142.857 99.51 143.583 99.81 144.119 100.344C144.655 100.878 144.957 101.603 144.96 102.36V102.36Z" fill="#DDDDDD"/>
<path d="M158.22 102.36H232.19" stroke="#AFAFAF" stroke-width="2" stroke-linecap="round" stroke-linejoin="round"/>
<path d="M142.1 118.45C143.68 118.45 144.96 117.17 144.96 115.59C144.96 114.01 143.68 112.73 142.1 112.73C140.521 112.73 139.24 114.01 139.24 115.59C139.24 117.17 140.521 118.45 142.1 118.45Z" fill="#DDDDDD"/>
<path d="M158.22 115.59H194.03" stroke="#AFAFAF" stroke-width="2" stroke-linecap="round" stroke-linejoin="round"/>
<path d="M144.96 129.06C144.962 129.626 144.796 130.18 144.483 130.652C144.17 131.123 143.724 131.491 143.202 131.709C142.679 131.927 142.104 131.986 141.548 131.876C140.993 131.767 140.482 131.496 140.081 131.096C139.68 130.696 139.407 130.187 139.296 129.632C139.185 129.077 139.241 128.501 139.457 127.978C139.673 127.455 140.04 127.007 140.51 126.693C140.981 126.378 141.534 126.21 142.1 126.21C142.857 126.21 143.583 126.51 144.119 127.044C144.655 127.578 144.957 128.303 144.96 129.06V129.06Z" fill="#DDDDDD"/>
<path d="M158.22 129.06H204.84" stroke="#AFAFAF" stroke-width="2" stroke-linecap="round" stroke-linejoin="round"/>
<path d="M420.78 71.2001H298.24V86.1901H420.78V71.2001Z" stroke="#AFAFAF" stroke-linecap="round" stroke-linejoin="round"/>
<path d="M259.8 71.2001H137.26V86.1901H259.8V71.2001Z" stroke="#AFAFAF" stroke-linecap="round" stroke-linejoin="round"/>
<path d="M582.82 42.52H85.6501V359.52H582.82V42.52Z" stroke="#AFAFAF" stroke-width="2" stroke-linecap="round" stroke-linejoin="round"/>
<path d="M591.09 359.92H77.3701V373.78H591.09V359.92Z" stroke="#AFAFAF" stroke-width="2" stroke-linecap="round" stroke-linejoin="round"/>
<path d="M591.09 28.66H77.3701V42.52H591.09V28.66Z" stroke="#AFAFAF" stroke-width="2" stroke-linecap="round" stroke-linejoin="round"/>
<path d="M511.04 88.18C487.81 78.68 476.29 105.31 485.04 122.04C487.1 125.96 486.8 129.15 484.85 133.91C482.9 138.67 482.85 142.07 488.12 144.21C493.39 146.35 495.72 143.91 497.67 139.15C499.62 134.39 501.67 131.91 505.85 130.55C523.83 124.75 534.28 97.68 511.04 88.18Z" fill="#F9F9F9" stroke="#AFAFAF" stroke-linecap="round" stroke-linejoin="round"/>
<path d="M490.73 139.08C489.38 133.41 489.83 129.47 493.89 128.51C497.95 127.55 501.21 125.25 499.43 122.28C497.65 119.31 490.27 118.62 492.29 122.22C494.31 125.82 504.94 124.53 502.45 121.01C499.96 117.49 494.02 114.57 496.45 114.01C498.88 113.45 506.31 116.81 503.91 114.19C499.09 108.94 504.72 107.83 506.27 102.19" stroke="#AFAFAF" stroke-linecap="round" stroke-linejoin="round"/>
<path d="M500.65 137.42C499.829 138.808 499.12 140.259 498.53 141.76C498.085 142.898 497.55 143.998 496.93 145.05C494.71 148.78 491.74 150.27 486.49 148.13C481.24 145.99 480.19 142.84 481.22 138.63C481.51 137.44 481.898 136.276 482.38 135.15C483.002 133.667 483.513 132.139 483.91 130.58C489.022 133.87 494.697 136.189 500.65 137.42V137.42Z" fill="#F9F9F9" stroke="#AFAFAF" stroke-linecap="round" stroke-linejoin="round"/>
<path d="M500.65 137.42C499.913 138.661 499.274 139.959 498.74 141.3C498.66 141.45 498.6 141.61 498.53 141.76C498.085 142.898 497.55 143.998 496.93 145.05C494.78 145.53 492.02 145.13 488.34 143.62C484.66 142.11 482.41 140.47 481.22 138.62C481.51 137.43 481.898 136.266 482.38 135.14L482.56 134.67C483.106 133.337 483.557 131.967 483.91 130.57C489.021 133.863 494.696 136.186 500.65 137.42Z" fill="#F9F9F9" stroke="#AFAFAF" stroke-linecap="round" stroke-linejoin="round"/>
<path d="M500.65 137.42C499.913 138.661 499.274 139.959 498.74 141.3C492.954 140.212 487.45 137.959 482.56 134.68C483.106 133.347 483.557 131.977 483.91 130.58C489.022 133.87 494.697 136.189 500.65 137.42V137.42Z" fill="#F9F9F9" stroke="#AFAFAF" stroke-linecap="round" stroke-linejoin="round"/>
<path d="M514.99 81.9501L519.38 71.2001" stroke="#AFAFAF" stroke-width="2" stroke-linecap="round" stroke-linejoin="round"/>
<path d="M532.05 98.4501L542.62 96.9301" stroke="#AFAFAF" stroke-width="2" stroke-linecap="round" stroke-linejoin="round"/>
<path d="M485.01 83.8L475.56 73.67" stroke="#AFAFAF" stroke-width="2" stroke-linecap="round" stroke-linejoin="round"/>
<path d="M500.12 79.55V72.41" stroke="#AFAFAF" stroke-linecap="round" stroke-linejoin="round"/>
<path d="M475.53 100.83L467.6 101.97" stroke="#AFAFAF" stroke-linecap="round" stroke-linejoin="round"/>
<path d="M527.97 120.6L530.89 125.61" stroke="#AFAFAF" stroke-linecap="round" stroke-linejoin="round"/>
<path d="M525.91 90.1L531.62 87.39" stroke="#AFAFAF" stroke-linecap="round" stroke-linejoin="round"/>
<path d="M126.25 137.72H102.83C100.812 146.545 101.388 155.765 104.49 164.27L129.04 163.88C129.04 163.88 122.42 149.5 126.25 137.72Z" fill="#DDDDDD" stroke="#AFAFAF" stroke-miterlimit="10"/>
<path d="M120.97 144.34H109.05" stroke="#AFAFAF" stroke-linecap="round" stroke-linejoin="round"/>
<path d="M120.21 149.51H111.2" stroke="#AFAFAF" stroke-linecap="round" stroke-linejoin="round"/>
<path d="M120.79 154.44H108.3" stroke="#AFAFAF" stroke-linecap="round" stroke-linejoin="round"/>
<path d="M108.45 98.6001H130.99C132.75 106.51 131.343 114.795 127.07 121.68L102.68 120.68C102.68 120.68 110.12 110 108.45 98.6001Z" stroke="#AFAFAF" stroke-linecap="round" stroke-linejoin="round"/>
<path d="M112.57 103.99H127.29" stroke="#AFAFAF" stroke-linecap="round" stroke-linejoin="round"/>
<path d="M112.78 108.93H124.53" stroke="#AFAFAF" stroke-linecap="round" stroke-linejoin="round"/>
<path d="M112.57 115.39H118.12" stroke="#AFAFAF" stroke-linecap="round" stroke-linejoin="round"/>
<path d="M119.38 115.39H123.07" stroke="#AFAFAF" stroke-linecap="round" stroke-linejoin="round"/>
<path d="M163.98 172.56L186.53 172.61C188.299 180.512 186.907 188.792 182.65 195.68L158.27 194.68C158.27 194.68 165.65 183.94 163.98 172.56Z" stroke="#AFAFAF" stroke-linecap="round" stroke-linejoin="round"/>
<path d="M168.1 177.96H182.82" stroke="#AFAFAF" stroke-linecap="round" stroke-linejoin="round"/>
<path d="M168.31 182.89H180.06" stroke="#AFAFAF" stroke-linecap="round" stroke-linejoin="round"/>
<path d="M168.1 189.35H173.65" stroke="#AFAFAF" stroke-linecap="round" stroke-linejoin="round"/>
<path d="M174.91 189.35H178.6" stroke="#AFAFAF" stroke-linecap="round" stroke-linejoin="round"/>
<path d="M351.65 184.12H374.19C375.948 192.027 374.54 200.307 370.27 207.19L345.88 206.19C345.88 206.19 353.31 195.5 351.65 184.12Z" stroke="#AFAFAF" stroke-linecap="round" stroke-linejoin="round"/>
<path d="M355.76 189.52H370.48" stroke="#AFAFAF" stroke-linecap="round" stroke-linejoin="round"/>
<path d="M355.97 194.45H367.72" stroke="#AFAFAF" stroke-linecap="round" stroke-linejoin="round"/>
<path d="M355.76 200.91H361.31" stroke="#AFAFAF" stroke-linecap="round" stroke-linejoin="round"/>
<path d="M362.57 200.91H366.26" stroke="#AFAFAF" stroke-linecap="round" stroke-linejoin="round"/>
<path d="M427.65 96.47L405.11 96.52C403.353 104.427 404.76 112.707 409.03 119.59L433.42 118.59C433.42 118.59 426 107.85 427.65 96.47Z" stroke="#AFAFAF" stroke-linecap="round" stroke-linejoin="round"/>
<path d="M423.55 101.87H408.83" stroke="#AFAFAF" stroke-linecap="round" stroke-linejoin="round"/>
<path d="M423.34 106.8H411.6" stroke="#AFAFAF" stroke-linecap="round" stroke-linejoin="round"/>
<path d="M423.55 113.26H418" stroke="#AFAFAF" stroke-linecap="round" stroke-linejoin="round"/>
<path d="M416.74 113.26H413.05" stroke="#AFAFAF" stroke-linecap="round" stroke-linejoin="round"/>
<path d="M279.64 68.4401V304.45" stroke="#AFAFAF" stroke-linecap="round" stroke-linejoin="round"/>
<path d="M630.06 365.01H9.89C4.4279 365.01 0 369.438 0 374.9V376.45C0 381.912 4.4279 386.34 9.89 386.34H630.06C635.522 386.34 639.95 381.912 639.95 376.45V374.9C639.95 369.438 635.522 365.01 630.06 365.01Z" fill="#EDEDED"/>
<path d="M19.1801 386.34C35.5801 378.5 59.9101 376.77 78.4501 386.34" stroke="#DDDDDD" stroke-width="0.75" stroke-linecap="round" stroke-linejoin="round"/>
<path d="M13.52 365C29.69 374 40.44 373.27 60.39 373C75.25 372.81 93.14 380.38 105.05 386.33" stroke="#DDDDDD" stroke-width="0.75" stroke-linecap="round" stroke-linejoin="round"/>
<path d="M90.27 365C102 378.19 110.14 379.84 114.08 376.44C118.26 372.83 122.56 371.85 127 375.66C132.14 380.08 139.29 371.13 143.31 365" stroke="#DDDDDD" stroke-width="0.75" stroke-linecap="round" stroke-linejoin="round"/>
<path d="M136.01 386.34C140.75 381.97 149.2 376.57 162.36 375.67C177.96 374.67 197.78 381.85 208.36 386.34" stroke="#DDDDDD" stroke-width="0.75" stroke-linecap="round" stroke-linejoin="round"/>
<path d="M187.88 365C206.18 374.6 226.18 380.22 242.34 375.66C258.11 371.23 295.77 376.75 309.47 365" stroke="#DDDDDD" stroke-width="0.75" stroke-linecap="round" stroke-linejoin="round"/>
<path d="M257.29 386.34C269.01 379.67 287.29 375.59 301.51 386.34" stroke="#DDDDDD" stroke-width="0.75" stroke-linecap="round" stroke-linejoin="round"/>
<path d="M321.65 386.34C343.44 369.4 386.94 366.34 423.27 375.58C466.27 386.53 485.55 373.89 493.36 365.01" stroke="#DDDDDD" stroke-width="0.75" stroke-linecap="round" stroke-linejoin="round"/>
<path d="M360.83 386.34C376.61 379.25 397.83 377.79 420.24 386.34" stroke="#DDDDDD" stroke-width="0.75" stroke-linecap="round" stroke-linejoin="round"/>
<path d="M498.38 386.34C524.8 374.04 545.94 375.47 565.54 386.34" stroke="#DDDDDD" stroke-width="0.75" stroke-linecap="round" stroke-linejoin="round"/>
<path d="M535.65 365C579.18 379.62 615.2 390.94 638.93 371.1" stroke="#DDDDDD" stroke-width="0.75" stroke-linecap="round" stroke-linejoin="round"/>
<path d="M570.37 365C592.46 378 618.26 377 634.14 366.17" stroke="#DDDDDD" stroke-width="0.75" stroke-linecap="round" stroke-linejoin="round"/>
<path d="M232.74 126.4L228.66 126.82L223.84 127.34L227.11 123.92L230.13 120.77L232.74 126.4Z" fill="white"/>
<path d="M216.79 248.14C229.45 256.14 240.98 247.3 244.16 231.2C248.85 207.43 252.88 147.38 252.88 147.38C252.88 147.38 259.31 133.46 261.36 128.43C263.41 123.4 263.08 118.93 260.1 117.64C260.1 117.64 257.1 108.34 252.48 108.05C251.592 107.576 250.665 107.178 249.71 106.86C247.4 106.39 243.15 108.52 242.03 109.7C240.91 110.88 244.63 112.12 246.75 111.77C248.87 111.42 250.42 116.77 249.47 119.03C248.52 121.29 244.47 125.83 243.03 124.65C241.59 123.47 241.14 119.39 241.73 116.2C242.32 113.01 241.91 111.41 239.78 112.65C237.65 113.89 233.52 124.23 233.99 126.12C234.46 128.01 237.18 135.81 237.36 137.12C237.54 138.43 216.76 206.82 212.66 218.69C208.56 230.56 207.84 242.49 216.79 248.14Z" fill="#FEBD9D"/>
<path d="M260.1 117.64C260.343 119.233 260.483 120.839 260.52 122.45" stroke="#EF8A66" stroke-width="0.75" stroke-linecap="round" stroke-linejoin="round"/>
<path d="M254.65 115C255.249 117.199 255.585 119.462 255.65 121.74" stroke="#EF8A66" stroke-width="0.75" stroke-linecap="round" stroke-linejoin="round"/>
<path d="M230.13 120.77L236.92 116.91C235.36 120.11 233.92 124.18 233.92 125.76L232.71 126.4C232.17 126.201 231.675 125.897 231.253 125.506C230.831 125.115 230.49 124.644 230.251 124.121C230.011 123.598 229.877 123.033 229.856 122.458C229.835 121.883 229.929 121.309 230.13 120.77V120.77Z" fill="#683F1D"/>
<path d="M228.66 126.82L223.84 127.34L227.11 123.92L228.66 126.82Z" fill="#683F1D"/>
<path d="M233.99 126.13C233.52 124.24 237.66 113.89 239.78 112.66C241.35 111.74 241.99 112.36 241.98 114.04C241.962 114.766 241.879 115.489 241.73 116.2C241.532 117.315 241.445 118.448 241.47 119.58C241.47 119.73 241.47 119.88 241.47 120.02V120.45C241.458 120.659 241.482 120.869 241.54 121.07L241.63 121.67C241.724 122.795 242.2 123.854 242.98 124.67C244.46 125.86 248.48 121.36 249.42 119.07C249.617 118.55 249.715 117.997 249.71 117.44" stroke="#EF8A66" stroke-width="0.75" stroke-linecap="round" stroke-linejoin="round"/>
<path d="M245.85 111.83C243.73 111.83 241.05 110.73 242.02 109.7C243.15 108.52 247.4 106.39 249.71 106.86C250.665 107.175 251.591 107.57 252.48 108.04" stroke="#EF8A66" stroke-width="0.75" stroke-linecap="round" stroke-linejoin="round"/>
<path d="M258.06 113C258.852 114.483 259.521 116.028 260.06 117.62C262 118.46 262.82 120.62 262.58 123.47" stroke="#EF8A66" stroke-width="0.75" stroke-linecap="round" stroke-linejoin="round"/>
<path d="M262.36 110.76L258.06 113.02L249.76 117.41L241.65 121.67C241.353 119.857 241.369 118.007 241.7 116.2C241.849 115.489 241.932 114.766 241.95 114.04L245.82 111.83L252.48 108.04L259.01 104.34L262.36 110.76Z" fill="#683F1D"/>
<path d="M257.8 104.34C257.43 106.03 258.63 110.97 261.74 111.96L263.74 110.72L259.89 103.21L257.8 104.34Z" fill="white"/>
<path d="M263.39 106C264.55 108.12 264.8 110.2 263.96 110.66C263.12 111.12 261.5 109.78 260.35 107.66C259.2 105.54 258.94 103.46 259.78 103C260.62 102.54 262.23 103.88 263.39 106Z" fill="#683F1D"/>
<path d="M233.99 126.13C233.52 124.24 237.66 113.89 239.78 112.66C241.35 111.74 241.99 112.36 241.98 114.04C241.962 114.766 241.879 115.489 241.73 116.2C241.532 117.315 241.445 118.448 241.47 119.58C241.47 119.73 241.47 119.88 241.47 120.02V120.45C241.458 120.659 241.482 120.869 241.54 121.07L241.63 121.67C241.724 122.795 242.2 123.854 242.98 124.67C244.46 125.86 248.48 121.36 249.42 119.07C249.617 118.55 249.715 117.997 249.71 117.44" stroke="#EF8A66" stroke-width="0.75" stroke-linecap="round" stroke-linejoin="round"/>
<path d="M121.07 229.63C118.14 242.63 97.87 238.47 96.73 231.81C95.59 225.15 97.43 223.5 98.99 211.3C100.27 201.3 117.25 201.11 120.26 207.82C120.745 208.903 120.857 210.116 120.58 211.27C119.948 214.676 119.931 218.168 120.53 221.58C120.96 224.78 121.54 227.5 121.07 229.63Z" fill="#FEBD9D"/>
<path d="M120.58 211.27C119.948 214.676 119.931 218.168 120.53 221.58C111.87 219.08 110.36 209.36 110.36 209.36L120.26 207.82C120.745 208.903 120.857 210.116 120.58 211.27Z" fill="#F4A789"/>
<path d="M69.0499 321.65L88.5499 329.13C88.5499 329.13 85.8399 351.67 85.6299 351.34C85.4199 351.01 52.8099 347.61 52.8099 347.61L69.0499 321.65Z" fill="#FEBD9D"/>
<path d="M40.6499 334.77C43.3699 344.6 50.1899 348.18 56.7199 347.96C63.2499 347.74 72.2899 344.31 75.6499 334C78.2199 326.11 72.6499 316.65 72.6499 316.65L40.6499 334.77Z" fill="white"/>
<path d="M77.7699 451.08C77.7699 451.08 80.2699 437.44 74.9799 414.87C72.7184 406.055 71.7085 396.966 71.9799 387.87C72.5899 373.95 76.8999 358.4 87.5099 337.25L155.51 334.46C158.55 343.92 161.31 352.613 163.79 360.54C171.32 384.54 176.45 401.84 180.04 413.54C184.82 429.1 192.9 451.09 192.9 451.09L77.7699 451.08Z" fill="#7416FF"/>
<path d="M157.5 299.29C153.75 313.84 157.22 329.64 158.74 333.1C160.26 336.56 159.02 338.93 156.81 339.34C154.6 339.75 89.4499 341.7 86.5299 341.28C83.6099 340.86 82.6599 338.65 82.6599 336.16C82.6599 333.67 77.5299 316.16 75.0299 309.16C75.0299 309.16 74.7599 328.7 69.3499 334.52C63.9399 340.34 51.3499 342.7 43.4399 338.41C41.9649 337.476 40.9161 336 40.5199 334.3C37.5199 324.96 42.1599 303.63 45.3799 288.38C46.6599 282.26 48.5099 274.61 50.8699 266.97C55.6199 251.58 62.4499 236.2 70.8699 233.45C89.6499 227.32 103.32 229.71 113.28 228.78C116.38 228.48 119.38 228.12 122.28 227.78H122.39C138.18 225.78 150.27 223.95 156.27 234.1C157.198 235.71 157.93 237.426 158.45 239.21C162.16 251.45 160.62 259.52 159.81 270.82C159.81 271.27 159.76 271.72 159.73 272.18C160.502 281.278 159.749 290.441 157.5 299.29Z" fill="#FCD83A"/>
<path d="M75.0299 309.12C75.0299 309.12 74.7599 328.66 69.3499 334.48C63.9399 340.3 51.3499 342.66 43.4399 338.37C41.9648 337.436 40.916 335.96 40.5199 334.26C65.9899 341.83 74.4699 314.73 67.6799 309.73C61.0699 304.86 61.1699 291.8 65.2099 285.01C67.8999 292.8 72.9599 302.72 75.0299 309.12Z" fill="#FCD83A"/>
<path d="M156.26 234C149.05 239.5 143.01 246.54 140.58 255.67C138.94 261.81 136.28 266.6 132.69 270C122.96 279.26 106.38 278.28 84.9299 266.21C70.0799 257.87 59.9299 259.64 50.8699 266.9C55.6199 251.51 62.4499 236.13 70.8699 233.38C89.6499 227.25 103.32 229.64 113.28 228.71C116.38 228.41 119.38 228.05 122.28 227.71H122.39C138.17 225.75 150.26 223.89 156.26 234Z" fill="#FCD83A"/>
<path d="M63.49 278.07C63.7848 280.447 64.3622 282.78 65.21 285.02C67.9 292.8 72.96 302.72 75.03 309.12" stroke="#C4B4A0" stroke-width="0.75" stroke-linecap="round" stroke-linejoin="round"/>
<path d="M228.19 251.7C224.06 254.45 200.71 260.97 182.32 266.25C174.956 268.396 167.422 269.905 159.8 270.76C153.075 271.539 146.289 271.663 139.54 271.13C137.217 270.937 134.913 270.559 132.65 270C103.96 263.06 108.53 230.19 122.23 227.69H122.34C141.887 224.246 161.6 221.826 181.4 220.44C189.98 219.91 198.74 219.67 207.19 219.89C240.05 220.78 232.32 249 228.19 251.7Z" fill="#FCD83A"/>
<path d="M228.19 251.7C224.06 254.45 200.71 260.97 182.32 266.25C174.957 268.396 167.422 269.905 159.8 270.76C153.075 271.539 146.289 271.663 139.54 271.13" stroke="#FCD83A" stroke-width="0.75" stroke-linecap="round" stroke-linejoin="round"/>
<path d="M181.44 220.47C173.89 223.6 164.34 227.86 156.26 234.04C149.05 239.54 143.01 246.58 140.58 255.71C138.94 261.85 136.28 266.64 132.69 270.04C104 263.1 108.57 230.23 122.27 227.73H122.38C141.927 224.283 161.64 221.859 181.44 220.47V220.47Z" fill="#FCD83A"/>
<path d="M204.15 219.85C209.21 217.91 214.72 218.3 221.76 221.66C230 225.6 237.14 235.73 233.66 249.66C233.09 251.91 224.33 256.59 222.88 255.56C221.43 254.53 232.91 226 204.15 219.85Z" fill="white"/>
<path d="M101.65 212.44C119.02 216.55 127.79 214.78 130.03 205.63C132.27 196.48 122.94 182.57 122.94 182.57L123.68 177.57C121.608 176.615 119.586 175.557 117.62 174.4C116.68 173.65 113.62 165.9 110.8 165.15C107.98 164.4 88.2099 174.58 94.0899 191.38C99.9699 208.18 101.65 212.44 101.65 212.44Z" fill="#FEBD9D"/>
<path d="M118.51 187.34C117.91 189.24 114.78 189.96 111.51 188.94C108.24 187.92 106.09 185.54 106.68 183.63C107.27 181.72 110.41 181 113.68 182.03C116.95 183.06 119.11 185.43 118.51 187.34Z" fill="#F4AF90"/>
<path d="M122.91 182.57L123.65 177.57C121.578 176.615 119.556 175.557 117.59 174.4" stroke="#EF8A66" stroke-width="0.75" stroke-linecap="round" stroke-linejoin="round"/>
<path d="M108.7 247.58C100.53 249.58 98.5099 241.31 98.5099 241.31C91.9199 248.14 84.1299 246.18 82.3299 242.57C82.3299 242.57 75.6199 245.34 70.2499 241.31C62.8699 235.78 67.6799 227.55 67.6799 227.55C59.9399 225.55 61.3599 217.82 65.7999 214.55L66.4599 214.09C71.0799 211.09 79.3799 209.09 76.3299 203.09C73.1499 196.7 70.5399 187.9 78.7499 182.98C78.7499 182.98 79.1699 173.49 85.0699 170.38C90.9699 167.27 91.3599 166.04 91.4899 164.28C91.9399 157.8 98.0599 151.68 105 156.45C105.22 156.6 105.45 156.76 105.67 156.93C113.1 156.19 115.06 163.18 113.81 166.55C116.47 175.27 110.13 181.81 111.93 184.86C113.99 188.34 112.42 192.5 112.42 192.5C109.35 187.63 105.57 186.09 102.97 190.26C100.86 193.66 102.58 198.11 109.41 202.35C116.72 206.89 113.26 212.72 111.66 217.11C110.726 219.68 110.413 222.435 110.745 225.149C111.077 227.863 112.045 230.461 113.57 232.73C117.1 237.76 116.87 245.62 108.7 247.58Z" fill="#7F542D"/>
<path d="M108.7 247.58C100.53 249.58 98.5099 241.31 98.5099 241.31C91.9199 248.14 84.1299 246.18 82.3299 242.57C82.3299 242.57 75.6199 245.34 70.2499 241.31C62.8699 235.78 67.6799 227.55 67.6799 227.55C59.9399 225.55 61.3599 217.82 65.7999 214.55L66.4599 214.09C69.5699 222.82 75.2299 227.54 80.9999 226.18C88.6699 224.4 92.9999 220.18 100.18 224.6C107.36 229.02 109.51 208.4 98.9899 205.29C88.4699 202.18 86.4499 184.49 95.5499 182.29C102.36 180.69 108.48 166.92 105 156.36C105.22 156.51 105.45 156.67 105.67 156.84C113.1 156.1 115.06 163.09 113.81 166.46C116.47 175.18 110.13 181.72 111.93 184.77C113.99 188.25 112.42 192.41 112.42 192.41C109.35 187.54 105.57 186 102.97 190.17C100.86 193.57 102.58 198.02 109.41 202.26C116.72 206.8 113.26 212.63 111.66 217.02C110.726 219.59 110.413 222.345 110.745 225.059C111.077 227.773 112.045 230.371 113.57 232.64C117.1 237.76 116.87 245.62 108.7 247.58Z" fill="#704725"/>
<path d="M115.34 179.27C115.342 179.575 115.45 179.87 115.645 180.104C115.839 180.339 116.11 180.499 116.409 180.557C116.708 180.615 117.019 180.567 117.287 180.422C117.555 180.278 117.765 180.044 117.881 179.762C117.997 179.48 118.011 179.166 117.922 178.875C117.833 178.583 117.645 178.331 117.392 178.162C117.138 177.993 116.833 177.917 116.53 177.947C116.226 177.977 115.943 178.112 115.727 178.327C115.604 178.451 115.506 178.598 115.439 178.76C115.373 178.922 115.339 179.095 115.34 179.27V179.27Z" fill="#683F1D"/>
<path d="M67.6499 227.56C71.4399 220.05 74.8899 220.27 78.1099 217.79C81.3299 215.31 82.7399 210.15 82.1099 207.79" stroke="#A56F42" stroke-width="0.75" stroke-linecap="round" stroke-linejoin="round"/>
<path d="M82.3299 242.57C81.3068 240.909 80.8511 238.961 81.0315 237.018C81.2118 235.076 82.0185 233.244 83.3299 231.8" stroke="#A56F42" stroke-width="0.75" stroke-linecap="round" stroke-linejoin="round"/>
<path d="M98.5099 241.31C98.0209 240.04 97.8046 238.681 97.8753 237.321C97.9459 235.962 98.3018 234.633 98.9199 233.42" stroke="#A56F42" stroke-width="0.75" stroke-linecap="round" stroke-linejoin="round"/>
<path d="M92.3199 170.84C96.7599 169.84 97.1899 166.67 98.5199 164.06C99.8499 161.45 101.91 157.41 105.67 156.86" stroke="#A56F42" stroke-width="0.75" stroke-linecap="round" stroke-linejoin="round"/>
<path d="M113.81 166.48C112.46 163.48 108.18 159.89 104.21 163.48" stroke="#A56F42" stroke-width="0.75" stroke-linecap="round" stroke-linejoin="round"/>
<path d="M106.1 195.82C106.01 192.06 109.72 191.18 112.6 194.05" stroke="#EF8A66" stroke-width="0.75" stroke-linecap="round" stroke-linejoin="round"/>
<path d="M111.09 197.45C108.19 197.45 108.09 193.1 111.78 193.35" stroke="#EF8A66" stroke-width="0.75" stroke-linecap="round" stroke-linejoin="round"/>
<path d="M120.08 188.19C120.614 188.868 121.331 189.379 122.146 189.665C122.96 189.95 123.839 189.997 124.68 189.8" stroke="#EF8A66" stroke-width="0.75" stroke-linecap="round" stroke-linejoin="round"/>
<path d="M105.65 199.45C107.85 201.22 111.82 200.97 111.82 200.97" stroke="#EF8A66" stroke-width="0.75" stroke-linecap="round" stroke-linejoin="round"/>
<path d="M114.19 203.09C115.747 203.09 117.01 201.828 117.01 200.27C117.01 198.713 115.747 197.45 114.19 197.45C112.632 197.45 111.37 198.713 111.37 200.27C111.37 201.828 112.632 203.09 114.19 203.09Z" fill="white"/>
<path d="M112.05 178C113.43 178.9 116.75 172.52 114.15 170.77C111.55 169.02 110.19 176.79 112.05 178Z" fill="#7F542D"/>
<path d="M385.266 158.629C380.585 144.764 378.522 139.8 375.852 136.796C373.182 133.792 365.625 130.596 365.625 130.596C365.625 130.596 362.475 118.396 358.444 118.785C354.413 119.174 361.097 135.414 361.097 135.414L357.554 151.35C358.702 153.22 359.595 155.235 360.212 157.341C362.968 166.396 370.525 167.252 372.605 174.852C372.48 174.419 385.224 166.785 385.266 158.629Z" fill="#FEBD9D"/>
<path d="M385.266 158.629C380.585 144.764 378.522 139.8 375.852 136.796C373.182 133.792 365.625 130.596 365.625 130.596C365.625 130.596 362.475 118.396 358.444 118.785C354.413 119.174 361.097 135.414 361.097 135.414L357.554 151.35C358.702 153.22 359.595 155.235 360.212 157.341C362.968 166.396 370.525 167.252 372.605 174.852C372.48 174.419 385.224 166.785 385.266 158.629Z" fill="#FEBD9D"/>
<path d="M375.86 136.796C373.207 133.741 365.633 130.596 365.633 130.596C365.633 130.596 362.484 118.396 358.452 118.785C354.42 119.174 361.105 135.414 361.105 135.414L357.562 151.35" stroke="#2B2B2B" stroke-width="0.75" stroke-linecap="round" stroke-linejoin="round"/>
<path d="M353.557 145.115C356.886 142.479 362.595 152.133 359.146 154.769C356.672 156.66 350.39 147.588 353.557 145.115Z" fill="#FEBD9D" stroke="#2B2B2B" stroke-miterlimit="10"/>
<path d="M365.632 130.6C362.979 129.556 362.645 134.023 364.964 135.735C367.283 137.447 368.764 137.806 369.098 138.884C369.432 139.962 370.091 143.343 370.091 143.343C369.347 145.479 369.063 147.748 369.256 150.001C369.449 152.255 370.116 154.442 371.212 156.42" stroke="#2B2B2B" stroke-width="0.75" stroke-linecap="round" stroke-linejoin="round"/>
<path d="M356.047 139.598C359.376 136.962 366.428 149.012 362.979 151.631C360.515 153.511 352.881 142.098 356.047 139.598Z" fill="#FEBD9D" stroke="#2B2B2B" stroke-miterlimit="10"/>
<path d="M358.937 135.692C362.266 133.056 369.327 145.106 365.878 147.725C363.416 149.608 355.782 138.174 358.937 135.692Z" fill="#FEBD9D" stroke="#2B2B2B" stroke-miterlimit="10"/>
<path d="M373.079 183.633L368.586 174.861C368.586 174.861 379.575 167.338 385.266 158.6L389.04 164.925C389.04 164.925 384.53 184.758 373.079 183.633Z" fill="white"/>
<path d="M438.765 225.915C423.437 203.826 403.804 182.087 401.014 179.049C399.537 177.305 397.461 176.175 395.194 175.882L388.347 163.72C388.347 163.72 380.875 174.846 368.586 180.837L374.799 192.75C374.799 192.75 372.899 194.196 377.076 202.969C381.253 211.742 397.419 245.248 405.593 251.897C425.14 267.8 458.912 254.954 438.765 225.915Z" fill="#7416FF"/>
<path d="M384.752 185.956L377.837 174.864" stroke="#2B2B2B" stroke-width="0.75" stroke-linecap="round" stroke-linejoin="round"/>
<path d="M380.627 188.712L373.832 177.817" stroke="#2B2B2B" stroke-width="0.75" stroke-linecap="round" stroke-linejoin="round"/>
<path d="M385.266 167.649L392.558 179.348" stroke="#2B2B2B" stroke-width="0.75" stroke-linecap="round" stroke-linejoin="round"/>
<path d="M381.611 171.338L388.911 183.037" stroke="#2B2B2B" stroke-width="0.75" stroke-linecap="round" stroke-linejoin="round"/>
<path d="M438.765 225.915C423.437 203.826 403.804 182.087 401.014 179.049C399.537 177.304 397.461 176.175 395.194 175.882L388.347 163.721" stroke="#2B2B2B" stroke-width="0.75" stroke-linecap="round" stroke-linejoin="round"/>
<path d="M581.682 435.22H497.056V368.542L572.738 367.489C578.566 392.077 581.682 435.22 581.682 435.22Z" fill="#757575"/>
<path d="M538.256 435.221C538.256 435.221 535.483 408.365 535.201 405.806C535.118 405.13 534.815 404.499 534.338 404.011C533.862 403.524 533.239 403.206 532.565 403.106C530.942 402.772 529.267 402.772 527.644 403.106" stroke="black" stroke-width="0.75" stroke-linecap="round" stroke-linejoin="round"/>
<path d="M587.775 273.252C586.423 295.581 581.784 330.294 578.575 352.409C576.769 364.861 575.443 373.326 575.443 373.326C575.443 373.326 521.294 375.431 506.582 375.038C491.87 374.645 490.261 373.557 490.261 367.626C490.261 361.695 490.509 287.626 490.509 287.626C490.509 287.626 417.866 261.955 407.406 253.233C396.946 244.511 409.469 215.85 436.359 221.733C443.12 223.214 449.839 224.72 456.702 226.233C477.102 230.76 498.75 235.313 525.888 239.165C555.363 243.376 573.815 243.615 586.413 251.9C588.28 253.122 588.494 261.467 587.775 273.252Z" fill="#7416FF"/>
<path d="M568.219 295.701C556.776 302.959 556.751 313.169 561.227 321.077C571.548 339.277 541.543 327.453 540.25 350.03L583.693 339.709L568.219 295.701Z" fill="#7416FF"/>
<path d="M603.66 280.244C598.698 277.23 593.356 274.89 587.776 273.286C578.542 270.718 569.632 271.258 563.718 277.351C562.661 278.436 561.738 279.645 560.971 280.951C546.156 305.77 504.734 301.243 497.057 275.071C490.527 252.819 480.457 238.989 456.704 226.288C477.104 230.755 498.751 235.309 525.89 239.16C555.365 243.371 573.817 243.61 586.415 251.895C592.251 254.364 598.336 265.644 603.66 280.244Z" fill="#7416FF"/>
<path d="M528.654 237.546C519 237.546 511.169 243.717 511.169 251.316C511.169 255.595 513.651 259.429 517.554 261.954C519.442 263.17 521.532 264.04 523.725 264.522C525.341 264.897 526.996 265.084 528.655 265.078H529.742C532.069 264.977 534.363 264.488 536.529 263.632C538.58 262.851 540.464 261.69 542.083 260.209C543.336 259.097 544.345 257.737 545.047 256.216C545.748 254.694 546.126 253.043 546.157 251.368C546.156 243.717 538.325 237.546 528.654 237.546ZM534.448 257.992C532.739 258.52 530.964 258.808 529.176 258.848H528.654C527.253 258.853 525.856 258.71 524.486 258.42C522.723 258.076 521.032 257.434 519.486 256.52C517.004 255.02 515.464 252.92 515.464 250.589C515.464 246.019 521.369 242.322 528.653 242.322C535.937 242.322 541.853 246.022 541.853 250.589C541.795 251.65 541.487 252.681 540.954 253.601C540.422 254.52 539.68 255.3 538.789 255.878C537.477 256.831 536.007 257.547 534.448 257.992V257.992Z" stroke="white" stroke-width="0.75" stroke-linecap="round" stroke-linejoin="round"/>
<path d="M519.958 234.029C516.689 234.654 513.051 235.741 511.228 238.873C509.405 242.005 509.319 255.057 510.988 256.486C512.657 257.915 514.882 251.086 524.836 247.756L519.958 234.029Z" fill="white"/>
<path d="M533.207 248.373L543.366 232.317C543.366 232.317 548.758 235.175 549.631 240.336C550.504 245.497 548.142 262.417 543.863 258.129C540.824 255.134 541.509 252.66 533.207 248.373Z" fill="white"/>
<path d="M517.553 261.955L519.487 256.495" stroke="white" stroke-width="0.75" stroke-linecap="round" stroke-linejoin="round"/>
<path d="M523.724 264.531L524.486 258.395" stroke="white" stroke-width="0.75" stroke-linecap="round" stroke-linejoin="round"/>
<path d="M529.741 265.062L529.176 258.814" stroke="white" stroke-width="0.75" stroke-linecap="round" stroke-linejoin="round"/>
<path d="M536.528 263.615L534.448 257.975" stroke="white" stroke-width="0.75" stroke-linecap="round" stroke-linejoin="round"/>
<path d="M542.082 260.158L538.787 255.853" stroke="white" stroke-width="0.75" stroke-linecap="round" stroke-linejoin="round"/>
<path d="M544.905 234.491C544.982 236.491 540.9 249.656 529.568 250.752C518.236 251.848 516.577 239.506 516.646 236.263C516.646 234.954 516.792 232.643 516.954 229.75C517.177 225.779 517.476 220.721 517.699 215.706L517.75 214.606C519 185.506 543.982 191.319 542.424 206.741C541.474 216.253 544.811 232.497 544.905 234.491Z" fill="#FEBD9D"/>
<path d="M516.954 229.75C517.177 225.779 517.476 220.721 517.699 215.706L531.538 213.566C532.042 222.39 527.78 229.981 516.954 229.75Z" fill="#F4A789"/>
<path d="M572.96 337.377C572.933 337.199 572.888 337.024 572.823 336.855C568.946 321.27 565.728 304.966 564.376 290.734" stroke="#757575" stroke-width="0.75" stroke-linecap="round" stroke-linejoin="round"/>
<path d="M509.628 317.816C508.378 312.39 511.648 310.798 514.498 309.822C514.233 308.29 514.798 305.808 518.198 305.278C521.416 304.778 522.571 307.94 522.571 307.94C522.571 307.94 529.341 305.646 531.052 312.54L509.628 317.816Z" fill="#DDDDDD"/>
<path d="M493.187 319.33L544.323 307.511L563.716 389.68L512.134 400.061L493.187 319.33Z" fill="#F9F9F9" stroke="#DDDDDD" stroke-linecap="round" stroke-linejoin="round"/>
<path d="M516.475 309.446C516.474 309.901 516.608 310.346 516.86 310.725C517.112 311.104 517.471 311.4 517.891 311.575C518.311 311.75 518.774 311.797 519.22 311.708C519.667 311.62 520.077 311.402 520.399 311.08C520.722 310.759 520.941 310.349 521.03 309.903C521.12 309.457 521.074 308.994 520.901 308.573C520.727 308.153 520.432 307.793 520.054 307.54C519.675 307.287 519.23 307.152 518.775 307.152C518.166 307.152 517.582 307.393 517.151 307.824C516.72 308.254 516.477 308.837 516.475 309.446V309.446Z" fill="#F9F9F9" stroke="#DDDDDD" stroke-linecap="round" stroke-linejoin="round"/>
<path d="M619.176 354.129C619.192 355.758 619.118 357.386 618.953 359.007V359.247C618.9 359.577 618.825 359.903 618.731 360.223C616.643 367.07 603.431 373.531 591.156 366.423C590.08 365.798 589.05 365.096 588.075 364.323C584.1 361.041 580.86 356.958 578.567 352.341C576.123 347.586 574.242 342.563 572.961 337.372C572.934 337.194 572.889 337.018 572.824 336.85C567.689 316.07 563.649 294.007 563.684 277.309C563.684 257.18 569.615 244.838 586.415 251.909C592.215 254.357 598.303 265.602 603.626 280.203C608.131 292.857 611.765 305.804 614.503 318.954C617.464 332.622 619.176 345.442 619.176 354.129Z" fill="#7416FF"/>
<path d="M618.988 359.033V359.273C618.934 359.603 618.86 359.929 618.765 360.249C616.677 367.096 603.465 373.557 591.19 366.449C590.114 365.824 589.084 365.122 588.109 364.349C591.852 362.417 596.064 361.577 600.262 361.927C622.848 363.964 598.884 339.016 614.562 318.947C617.446 332.64 619.209 345.435 619.235 354.122C619.343 355.759 619.259 357.404 618.987 359.022L618.988 359.033Z" fill="#7416FF"/>
<path d="M603.659 280.248C598.697 277.234 593.355 274.894 587.775 273.29C578.541 270.722 569.631 271.262 563.717 277.355C563.717 257.226 569.648 244.884 586.448 251.955C592.251 254.363 598.336 265.648 603.659 280.248Z" fill="#7416FF"/>
<path d="M518.247 354.497C516.847 353.641 508.593 348.866 506.197 348.712C503.801 348.558 498.691 352.093 498.691 352.093C498.691 352.093 488.549 352.693 487.428 354.493C486.307 356.293 488.583 358.841 490.328 359.748C492.073 360.655 490.428 362.521 490.653 364.027C490.878 365.533 492.758 366.595 492.981 367.627C493.204 368.659 492.228 371.487 494.556 372.18C496.884 372.873 495.412 374.302 496.584 376.331C497.756 378.36 504.92 377.983 523.115 374.38L518.247 354.497Z" fill="#FEBD9D"/>
<path d="M506.204 348.712C503.804 348.566 498.698 352.093 498.698 352.093C498.698 352.093 488.556 352.693 487.435 354.493C486.314 356.293 488.59 358.841 490.335 359.748C492.08 360.655 490.435 362.521 490.66 364.027C490.885 365.533 492.765 366.595 492.988 367.627C493.211 368.659 492.235 371.487 494.563 372.18C496.891 372.873 495.419 374.302 496.591 376.331C497.062 377.131 498.457 377.555 501.076 377.555" stroke="#4D4D4D" stroke-width="0.75" stroke-linecap="round" stroke-linejoin="round"/>
<path d="M516.971 352.853L520.625 376.235L528.336 375.097L525.936 352.28L516.971 352.853Z" fill="white"/>
<path d="M618.961 359.273C618.893 359.598 618.824 359.932 618.738 360.249C616.701 368.268 608.108 373.455 584.556 375.098C582.502 375.247 580.469 375.378 578.456 375.492C550.521 377.152 526.356 376.673 526.356 376.673L522.722 351.69C535.388 347.933 556.434 340.812 572.994 337.38C579.841 335.968 585.874 335.172 590.282 335.497C595.302 335.769 600.278 336.587 605.122 337.936C606.411 338.308 607.675 338.762 608.905 339.297C614.571 341.865 618.379 345.904 619.098 352.497C619.158 353.045 619.198 353.597 619.243 354.115C619.354 355.839 619.26 357.571 618.961 359.273Z" fill="#7416FF"/>
<path d="M590.282 335.498C585.874 335.173 579.815 335.969 572.994 337.381C556.434 340.804 535.388 347.934 522.722 351.691L526.359 376.673" stroke="#4D4D4D" stroke-width="0.75" stroke-linecap="round" stroke-linejoin="round"/>
<path d="M523.159 354.651L537.982 352.28" stroke="#4D4D4D" stroke-width="0.75" stroke-linecap="round" stroke-linejoin="round"/>
<path d="M523.86 359.452L538.264 357.655" stroke="#4D4D4D" stroke-width="0.75" stroke-linecap="round" stroke-linejoin="round"/>
<path d="M524.391 363.141L538.615 361.934" stroke="#4D4D4D" stroke-width="0.75" stroke-linecap="round" stroke-linejoin="round"/>
<path d="M525.178 368.55L538.906 367.489" stroke="#4D4D4D" stroke-width="0.75" stroke-linecap="round" stroke-linejoin="round"/>
<path d="M525.94 372.957L539.402 371.605" stroke="#4D4D4D" stroke-width="0.75" stroke-linecap="round" stroke-linejoin="round"/>
<path d="M498.69 352.135C502.362 351.758 505.665 351.604 505.665 351.604" stroke="#4D4D4D" stroke-width="0.75" stroke-linecap="round" stroke-linejoin="round"/>
<path d="M618.962 359.272C618.908 359.602 618.833 359.928 618.739 360.248C616.702 368.267 608.109 373.454 584.557 375.097C582.503 375.246 580.469 375.377 578.457 375.491C583.695 362.534 595.326 361.491 600.238 361.934C615.361 363.303 609.652 352.58 608.873 339.314C614.539 341.882 618.347 345.921 619.066 352.514C619.126 353.062 619.166 353.614 619.212 354.132C619.333 355.85 619.25 357.577 618.964 359.276L618.962 359.272Z" fill="#7416FF"/>
<path d="M540.79 187.436C540.228 191.587 539.227 195.667 537.803 199.606C535.586 205.374 532.003 210.415 526.155 210.372C525.538 210.364 524.923 210.307 524.315 210.201L508.773 203.825C508.773 203.825 508.841 203.525 508.996 202.969C510.088 199.191 511.686 195.578 513.746 192.228C513.926 191.946 514.123 191.663 514.311 191.372C518.011 185.766 521.705 181.282 521.705 181.282C521.705 181.282 521.919 175.916 526.305 175.128C530.691 174.34 542.005 179.254 540.79 187.436Z" fill="#FEBD9D"/>
<path d="M537.803 199.606C535.586 205.374 532.003 210.415 526.155 210.372C525.097 209.697 524.208 208.789 523.557 207.717C522.905 206.645 522.508 205.438 522.397 204.189C522.285 202.939 522.461 201.681 522.912 200.51C523.363 199.339 524.077 198.288 524.998 197.437C525.919 196.585 527.024 195.956 528.226 195.599C529.429 195.241 530.697 195.164 531.934 195.374C533.171 195.583 534.343 196.074 535.36 196.807C536.378 197.541 537.213 198.499 537.803 199.606V199.606Z" fill="#F4AF90"/>
<path d="M514.884 196.054C514.884 197.717 514.295 199.327 513.223 200.599C512.15 201.87 510.663 202.722 509.023 203.003C510.115 199.225 511.712 195.613 513.771 192.263C514.499 193.393 514.886 194.709 514.884 196.054V196.054Z" fill="#F4AF90"/>
<path d="M550.834 188.545C550.134 190.545 547.744 196.718 546.426 200.116C545.887 201.494 545.519 202.416 545.519 202.416L541.736 201.038L539.023 200.054L538.065 199.712C538.055 200.08 538.022 200.448 537.965 200.812C537.691 203.417 537.189 205.994 536.465 208.512C535.608 211.647 534.209 214.607 532.331 217.259C527.196 224.106 513.862 223.404 507.708 218.115C503.429 214.401 504.285 207.605 508.008 200.536C509.773 197.271 511.894 194.211 514.333 191.413C514.333 191.413 511.333 198.457 510.841 199.971C510.25 201.862 512.467 201.683 513.323 200.071C514.179 198.459 515.831 197.349 520.623 198.633C525.415 199.917 527.367 202.399 526.477 205.865C525.955 207.91 529.755 208.621 532.553 205.925C532.793 205.696 533.016 205.45 533.221 205.189C533.605 204.714 533.935 204.197 534.205 203.648C536.496 198.455 537.919 192.921 538.416 187.267C535.549 187.447 533.076 185.267 534.702 182.551C531.339 183.963 528.84 181.551 529.413 178.332C527.958 180.617 524.689 180.472 524.278 177.767L521.71 181.276C521.215 179.947 520.982 178.534 521.025 177.117C520.997 176.3 521.17 175.49 521.53 174.756C521.889 174.022 522.422 173.388 523.084 172.908C523.746 172.429 524.515 172.12 525.324 172.007C526.133 171.895 526.958 171.983 527.725 172.264C528.17 169.174 535.425 168.558 535.958 172.974C536.389 172.271 537.043 171.732 537.816 171.443C538.589 171.154 539.436 171.132 540.223 171.38C541.01 171.628 541.692 172.132 542.159 172.811C542.627 173.491 542.854 174.307 542.805 175.131C543.476 174.764 544.247 174.622 545.004 174.726C545.762 174.83 546.466 175.173 547.014 175.706C547.562 176.239 547.925 176.934 548.049 177.688C548.173 178.443 548.053 179.217 547.705 179.898C550.059 179.385 551.565 182.466 549.536 184.674C550.215 185.022 550.731 185.621 550.974 186.345C551.216 187.068 551.166 187.858 550.834 188.545V188.545Z" fill="#BF8228"/>
<path d="M525.89 192.092C525.89 192.319 525.957 192.541 526.083 192.729C526.209 192.918 526.388 193.065 526.598 193.152C526.808 193.238 527.038 193.261 527.261 193.217C527.483 193.173 527.688 193.063 527.848 192.903C528.008 192.743 528.118 192.538 528.162 192.316C528.206 192.093 528.183 191.863 528.097 191.653C528.01 191.443 527.863 191.264 527.674 191.138C527.486 191.012 527.264 190.945 527.037 190.945C526.733 190.945 526.441 191.066 526.226 191.281C526.011 191.496 525.89 191.788 525.89 192.092V192.092Z" fill="#683F1D"/>
<path d="M518.555 189.635C518.553 189.863 518.619 190.086 518.745 190.276C518.87 190.466 519.049 190.614 519.259 190.702C519.469 190.79 519.7 190.813 519.923 190.769C520.147 190.725 520.352 190.616 520.513 190.455C520.674 190.294 520.783 190.089 520.827 189.866C520.871 189.642 520.848 189.411 520.76 189.201C520.672 188.991 520.524 188.812 520.334 188.687C520.144 188.561 519.921 188.495 519.693 188.497C519.392 188.499 519.104 188.62 518.891 188.833C518.678 189.046 518.557 189.334 518.555 189.635V189.635Z" fill="#683F1D"/>
<path d="M528.2 186.049C527.609 188.094 533.609 190.114 533.866 188.865C534.054 187.967 529.073 183.02 528.2 186.049Z" fill="#BF8228"/>
<path d="M519.693 183.337C519.342 184.437 524.383 186.324 524.974 184.484C525.675 182.293 520.001 182.396 519.693 183.337Z" fill="#BF8228"/>
<path d="M541.74 201.035L538.068 199.708C537.838 202.699 537.302 205.658 536.468 208.54C535.278 208.72 533.9 208.095 532.557 205.972C533.236 205.314 533.795 204.543 534.209 203.693C536.5 198.5 537.923 192.966 538.42 187.312C535.553 187.492 533.08 185.312 534.706 182.596C531.343 184.008 528.844 181.596 529.417 178.377C527.962 180.662 524.693 180.517 524.282 177.812L521.709 181.325C521.214 179.996 520.982 178.584 521.024 177.166C522.41 175.754 524.31 174.778 525.902 175.266C525.902 175.266 530.087 176.276 531.559 174.273C530.746 177.491 534.032 180.555 537.909 179.237C537.909 179.237 539.261 185.082 543.994 185.074C543.994 185.074 543.481 190.303 546.185 190.782C548.235 191.133 544.102 197.03 541.74 201.035Z" fill="#B57724"/>
<path d="M537.965 200.813C537.691 203.419 537.189 205.995 536.465 208.513C535.608 211.648 534.209 214.608 532.331 217.26C527.196 224.107 513.862 223.405 507.708 218.116C503.429 214.402 504.285 207.606 508.008 200.537C508.539 212.767 520.161 219.776 532.554 205.972L533.221 205.236C534.675 203.631 536.261 202.151 537.962 200.811L537.965 200.813Z" fill="#B57724"/>
<path d="M546.43 200.111C545.891 201.489 545.523 202.411 545.523 202.411L541.74 201.031L539.027 200.047C543.221 197.27 545.352 198.468 546.43 200.111Z" fill="#B57724"/>
<path d="M536.622 207.969C537.368 205.269 537.852 202.503 538.068 199.71C540.43 197.57 544.568 197.639 546.468 200.018C546.987 200.679 547.315 201.469 547.418 202.303C548.142 207.497 543.802 212.969 536.622 207.969Z" fill="#FEBD9D"/>
<path d="M542.057 209.936C540.082 209.872 538.179 209.183 536.622 207.968" stroke="#EF8A66" stroke-width="0.75" stroke-linecap="round" stroke-linejoin="round"/>
<path d="M516.638 194.818C517.015 192.644 518.221 192.644 520.498 192.25C522.775 191.856 524.538 189.828 524.289 187.774" stroke="#EF8A66" stroke-width="0.75" stroke-linecap="round" stroke-linejoin="round"/>
<path d="M539.626 203.218C539.994 202.809 540.453 202.494 540.967 202.297C541.48 202.1 542.033 202.027 542.58 202.085C543.126 202.142 543.652 202.329 544.113 202.628C544.574 202.928 544.957 203.333 545.232 203.809" stroke="#EF8A66" stroke-width="0.75" stroke-linecap="round" stroke-linejoin="round"/>
<path d="M540.713 202.45C544.598 202.082 544.008 207.919 540.251 206.84" stroke="#EF8A66" stroke-width="0.75" stroke-linecap="round" stroke-linejoin="round"/>
<path d="M505.666 215.384C509.329 212.928 514.224 214.169 518.166 217.695C523.412 222.385 531.988 217.695 531.988 217.695" stroke="#CE7A18" stroke-width="0.75" stroke-linecap="round" stroke-linejoin="round"/>
<path d="M535.877 210.373C533.737 212.085 525.607 216.8 519.753 212.444C513.899 208.088 505.067 213.544 505.067 213.544" stroke="#CE7A18" stroke-width="0.75" stroke-linecap="round" stroke-linejoin="round"/>
<path d="M505.23 207.788C507.121 206.076 514.011 202.422 518.496 207.3C522.981 212.178 528.826 207.719 528.826 207.719" stroke="#CE7A18" stroke-width="0.75" stroke-linecap="round" stroke-linejoin="round"/>
<path d="M513.052 200.539C514.139 201.729 521.91 204.459 526.429 202.807" stroke="#CE7A18" stroke-width="0.75" stroke-linecap="round" stroke-linejoin="round"/>
<path d="M524.264 177.816C523.785 175.36 525.976 172.476 527.747 172.316" stroke="#CE7A18" stroke-width="0.75" stroke-linecap="round" stroke-linejoin="round"/>
<path d="M529.416 178.399C529.767 176.448 532.095 171.766 535.407 171.552" stroke="#CE7A18" stroke-width="0.75" stroke-linecap="round" stroke-linejoin="round"/>
<path d="M534.705 182.604C535.561 178.804 538.068 174.713 542.057 173.027" stroke="#CE7A18" stroke-width="0.75" stroke-linecap="round" stroke-linejoin="round"/>
<path d="M538.419 187.316C538.95 183.165 544.692 179.733 547.731 179.947" stroke="#CE7A18" stroke-width="0.75" stroke-linecap="round" stroke-linejoin="round"/>
<path d="M537.512 193.422C541.235 190.222 547.688 187.388 551.094 187.157" stroke="#CE7A18" stroke-width="0.75" stroke-linecap="round" stroke-linejoin="round"/>
<path d="M517.066 201.592C520.429 202.319 524.195 201.926 524.075 202.08C523.955 202.234 523.375 207.215 519.693 206.693C516.011 206.171 517.066 201.592 517.066 201.592Z" fill="white" stroke="#EF8A66" stroke-width="0.75" stroke-linecap="round" stroke-linejoin="round"/>
</svg>
