<svg width="284" height="197" viewBox="0 0 284 197" fill="none" xmlns="http://www.w3.org/2000/svg">
<path d="M266 16.8511V174H38V16.8511C37.9983 14.769 38.4143 12.707 39.2242 10.7831C40.0341 8.85922 41.222 7.11114 42.7199 5.6389C44.2179 4.16666 45.9965 2.99914 47.954 2.20315C49.9115 1.40716 52.0095 0.998316 54.128 1.00001H249.872C254.149 1.00001 258.252 2.67002 261.276 5.64267C264.301 8.61532 266 12.6471 266 16.8511Z" stroke="#C6C6C6" stroke-width="1.64" stroke-linecap="round" stroke-linejoin="round"/>
<path d="M266 16.9419V17.6524H38V16.9419C37.9983 14.8479 38.4143 12.7741 39.2242 10.8392C40.0341 8.90425 41.222 7.14615 42.7199 5.66548C44.2179 4.1848 45.9965 3.0106 47.954 2.21004C49.9115 1.40949 52.0095 0.998306 54.128 1.00001H249.872C254.149 1.00001 258.252 2.67959 261.276 5.66927C264.301 8.65895 266 12.7138 266 16.9419Z" stroke="#C6C6C6" stroke-width="1.64" stroke-linecap="round" stroke-linejoin="round"/>
<path d="M256.912 9.2327C256.912 9.80524 256.772 10.3649 256.508 10.841C256.244 11.317 255.868 11.6881 255.43 11.9072C254.991 12.1263 254.508 12.1836 254.042 12.0719C253.576 11.9602 253.148 11.6845 252.812 11.2796C252.476 10.8748 252.247 10.359 252.154 9.79745C252.062 9.23591 252.109 8.65386 252.291 8.12491C252.473 7.59595 252.781 7.14384 253.176 6.82576C253.571 6.50767 254.035 6.33789 254.51 6.33789C255.147 6.33789 255.758 6.64288 256.209 7.18576C256.659 7.72865 256.912 8.46495 256.912 9.2327Z" fill="#EDEDED"/>
<path d="M248.606 9.2327C248.606 9.80524 248.465 10.3649 248.201 10.841C247.937 11.317 247.562 11.6881 247.123 11.9072C246.684 12.1263 246.201 12.1836 245.735 12.0719C245.269 11.9602 244.841 11.6845 244.505 11.2796C244.169 10.8748 243.941 10.359 243.848 9.79745C243.755 9.23591 243.803 8.65386 243.985 8.12491C244.166 7.59595 244.474 7.14384 244.869 6.82576C245.264 6.50767 245.729 6.33789 246.204 6.33789C246.841 6.33789 247.452 6.64288 247.902 7.18576C248.353 7.72865 248.606 8.46495 248.606 9.2327Z" fill="#DDDDDD"/>
<path d="M240.3 9.2327C240.3 9.80524 240.159 10.3649 239.895 10.841C239.631 11.317 239.256 11.6881 238.817 11.9072C238.378 12.1263 237.895 12.1836 237.429 12.0719C236.963 11.9602 236.535 11.6845 236.199 11.2796C235.863 10.8748 235.634 10.359 235.542 9.79745C235.449 9.23591 235.496 8.65386 235.678 8.12491C235.86 7.59595 236.168 7.14384 236.563 6.82576C236.958 6.50767 237.422 6.33789 237.897 6.33789C238.535 6.33789 239.146 6.64288 239.596 7.18576C240.047 7.72865 240.3 8.46495 240.3 9.2327Z" fill="#EDEDED"/>
<path d="M118.769 97.2026C118.374 92.5028 138.174 83.6082 141.425 90.4742L134.992 97.2026C134.992 97.2026 121.608 102.738 118.769 97.2026Z" fill="#666666"/>
<path d="M128.586 63.668C125.572 54.3052 125.362 53.1578 127.362 52.4327C129.363 51.7075 134.459 62.3737 135.035 63.668C137.05 67.7648 138.603 72.0752 139.665 76.5188C140.579 80.6678 141.72 90.2325 141.912 92.5365C142.698 102.257 126.75 105.204 126.056 97.6493C125.362 90.0948 125.289 87.644 125.289 87.644C125.289 87.644 117.069 88.4334 115.909 82.2466C115.184 77.4086 114.906 72.5137 115.077 67.6242C115.077 67.6242 102.564 65.5405 103.012 62.2268C103.459 58.9132 127.938 65.614 127.938 65.614L128.586 63.668Z" fill="#F9C6B8"/>
<path d="M115.077 67.6242C115.077 67.6242 102.564 65.5405 103.012 62.2268C103.459 58.9132 127.938 65.614 127.938 65.614L128.586 63.668C125.572 54.3052 125.362 53.1578 127.362 52.4327C129.363 51.7075 134.459 62.3737 135.035 63.668" stroke="#F6B8A9" stroke-width="0.61" stroke-linecap="round" stroke-linejoin="round"/>
<path d="M127.919 65.6139C126.86 69.7507 127.041 74.1099 128.44 78.1435" stroke="#F6B8A9" stroke-width="0.61" stroke-linecap="round" stroke-linejoin="round"/>
<path d="M122.056 58.445C124.019 59.4731 125.563 59.6934 126.148 56.8846C126.732 54.0757 124.019 53.984 123.106 54.1308C121.709 54.3603 121.215 57.9953 122.056 58.445Z" fill="#AAAAAB"/>
<path d="M122.448 57.7106C122.01 59.216 121.69 61.0977 121.699 61.0426C122.028 61.2078 123.91 61.8596 124.202 61.2078C124.496 60.0594 124.704 58.8903 124.823 57.7106H122.448Z" fill="#AAAAAB"/>
<path d="M120.676 61.9789C119.644 66.5685 114.347 91.8663 114.173 92.6924C114 93.5186 114.228 97.3371 114.557 97.484C114.886 97.6308 116.712 94.8954 117.397 93.5094C118.082 92.1233 124.019 64.393 124.394 63.0988C125.307 59.9503 121.352 58.9681 120.676 61.9789Z" fill="#AAAAAB"/>
<path d="M116.009 76.326C113.443 76.9227 112.712 79.3827 114.612 81.0166C116.648 82.7698 121.663 81.9345 121.919 79.7407C122.174 77.5469 118.146 75.8304 116.009 76.326Z" fill="#F9C6B8"/>
<path d="M115.799 72.2872C113.168 71.9016 112.52 74.5177 114.402 76.583C116.283 78.6483 122.485 79.0706 122.832 76.6564C123.179 74.2423 117.397 72.5258 115.799 72.2872Z" fill="#F9C6B8"/>
<path d="M113.452 67.771C116.758 66.9816 123.919 71.8649 123.636 73.3795C123.289 75.2796 119.918 75.5733 115.123 73.5264C110.629 71.6171 111.826 68.1565 113.452 67.771Z" fill="#F9C6B8" stroke="#F7B8A9" stroke-width="0.61" stroke-linecap="round" stroke-linejoin="round"/>
<path d="M272.708 104.424C262.441 103.919 253.938 113.236 251.307 123.929C251.225 124.223 251.161 124.554 251.097 124.902C250.814 126.549 250.619 128.21 250.513 129.878C249.417 143.995 250.449 172.102 250.513 172.726C250.558 172.955 243.206 172.726 233.113 172.249C229.386 172.074 225.267 171.881 220.992 171.661C199.218 170.587 173.36 169.137 173.36 169.137L171.798 151.595C171.798 151.595 168.537 157.103 157.403 167.944C146.269 178.784 128.45 172.726 130.368 159.132C131.564 150.595 136.588 144.344 142.662 133.898C144.488 130.658 146.516 127.023 148.516 122.791C151.174 117.164 153.768 111.776 156.243 106.939C157.33 104.8 158.399 102.771 159.431 100.853C163.34 93.6106 166.848 88.1214 169.67 85.5605C178.155 77.8499 196.322 82.2927 201.163 83.8531C208.388 86.2131 215.884 87.6321 223.468 88.0755C234.209 88.8282 250.513 93.4821 259.153 96.502C264.147 98.1831 268.745 100.876 272.662 104.414L272.708 104.424Z" fill="#711DC8"/>
<path d="M279.932 120.451C270.534 110.968 256.258 106.829 241.936 119.661C225.276 134.577 212.489 137.166 193.746 115.384C180.192 99.6321 175.479 95.6116 159.468 100.853C163.377 93.6106 166.884 88.1214 169.706 85.5605C178.192 77.8499 196.359 82.2927 201.2 83.8531C208.424 86.2131 215.92 87.6321 223.504 88.0755C234.245 88.8282 250.549 93.4821 259.19 96.502C264.184 98.1831 268.781 100.876 272.698 104.414C276.398 107.389 278.59 113.346 279.932 120.451Z" fill="#9851F9"/>
<path d="M155.988 147.557C150.023 154.083 144.616 139.92 142.68 133.898C144.506 130.658 146.534 127.023 148.534 122.791C151.192 117.164 153.786 111.776 156.262 106.939C160.673 113.722 154.709 119.937 154.289 123.012C153.247 131.218 164.592 138.185 155.988 147.557Z" fill="#711DC8"/>
<path d="M118.475 97.2454C127.719 99.2006 142.086 90.5171 142.086 90.5171C142.086 90.5171 150.005 126.031 152.069 133.907C154.133 141.783 167.359 172.634 141.593 173.901C125.061 174.708 123.946 143.123 122.978 132.723C122.01 122.323 118.475 97.2454 118.475 97.2454Z" fill="#711DC8"/>
<path d="M124.604 101.303C131.719 101.808 139.647 96.9979 139.647 96.9979" stroke="#5F5F5F" stroke-width="0.61" stroke-linecap="round" stroke-linejoin="round"/>
<path d="M142.086 90.5171C142.086 90.5171 150.005 126.031 152.069 133.907C153.202 138.203 157.65 149.337 157.276 158.773" stroke="#5F5F5F" stroke-width="0.61" stroke-linecap="round" stroke-linejoin="round"/>
<path d="M193.746 89.6545C198.313 98.2554 210.589 106.517 225.349 95.1069C225.349 95.1069 226.938 90.3705 226.774 90.3705C226.609 90.3705 195.838 86.6254 195.838 86.6254L193.746 89.6545Z" fill="white"/>
<path d="M205.894 78.9882C202.094 78.1253 196.578 79.0891 192.778 84.9546C188.978 90.8201 188.494 95.6667 188.714 95.6117C188.933 95.5566 194.66 91.94 197.281 92.1695C200.109 92.6523 202.903 93.3146 205.648 94.1522L205.894 78.9882Z" fill="#FED81D"/>
<path d="M223.029 80.705C223.029 80.705 231.432 80.76 232.565 86.6806C233.697 92.6012 230.583 99.6967 226.774 102.983C222.965 106.269 225.066 98.2464 211.411 94.4829L223.029 80.705Z" fill="#FED81D"/>
<path d="M227.13 87.6258C227.13 87.6258 222.463 94.758 212.06 94.9232C201.656 95.0884 199.656 88.8466 199.656 88.8466C200.779 86.0194 202.14 79.9887 203.008 75.7571C203.556 73.086 203.921 71.1675 203.921 71.1675C203.921 71.1675 205.639 54.4247 223.504 55.4344L223.806 58.1882L227.13 87.6258Z" fill="#F9C6B8"/>
<path d="M203.008 75.8856C203.556 73.2145 203.921 71.296 203.921 71.296L214.087 66.5045C214.087 66.5045 215.695 78.1713 203.008 75.8856Z" fill="#E4A194"/>
<path d="M171.825 151.596C170.391 135.073 170.391 121.745 170.391 121.745" stroke="#711DC8" stroke-width="0.61" stroke-linecap="round" stroke-linejoin="round"/>
<path d="M239.698 191.699C238.827 191.378 237.996 190.956 237.223 190.441C232.017 186.99 231.569 180.262 233.149 172.248C234.373 166.107 236.803 159.214 239.15 152.458C241.835 144.757 244.466 137.239 245.206 131.227C245.315 130.382 245.379 129.574 245.407 128.803C245.542 124.185 246.383 119.616 247.9 115.255C252.193 103.111 261.601 95.4645 272.698 104.414C276.352 107.379 278.58 113.336 279.923 120.441C280.407 122.974 280.782 125.655 281.092 128.39C282.115 137.689 282.252 147.666 282.709 155.129C284.947 191.203 276.352 205.596 239.698 191.699Z" fill="#711DC8"/>
<path d="M279.932 120.45C271.849 112.29 260.13 108.086 247.9 115.255C252.193 103.111 261.601 95.4645 272.698 104.414C276.397 107.388 278.589 113.345 279.932 120.45Z" fill="#711DC8"/>
<path d="M250.549 172.725C250.595 172.955 243.242 172.725 233.149 172.248C229.423 172.074 225.303 171.881 221.029 171.661C213.722 168.347 209.155 163.555 213.055 156.689C223.668 138.028 243.196 163.886 244.183 145.381C244.868 132.704 247.928 129.96 250.512 129.877C249.416 143.995 250.448 172.083 250.549 172.725Z" fill="#711DC8"/>
<path d="M253.042 118.422C251.591 122.078 250.737 125.947 250.512 129.877C249.535 144.004 250.448 172.101 250.512 172.726" stroke="#5F5F5F" stroke-width="0.61" stroke-linecap="round" stroke-linejoin="round"/>
<path d="M239.698 191.699C238.827 191.378 237.996 190.956 237.223 190.441C245.617 192.277 258.167 193.883 263.711 189.138C272.433 181.675 266.889 172.11 271.712 166.842C276.534 161.573 283.485 159.875 281.101 128.427C282.124 137.725 282.261 147.703 282.718 155.166C284.947 191.203 276.352 205.596 239.698 191.699Z" fill="#711DC8"/>
<path d="M218.691 128.409C220.024 122.378 212.498 122.653 212.498 122.653C213.165 117.091 205.839 115.558 204.15 120.974C198.204 119.138 196.322 120.974 195.454 124.122L218.691 128.409Z" fill="#DDDDDD"/>
<path d="M208.543 123.232C209.527 123.232 210.324 122.43 210.324 121.442C210.324 120.453 209.527 119.652 208.543 119.652C207.559 119.652 206.762 120.453 206.762 121.442C206.762 122.43 207.559 123.232 208.543 123.232Z" fill="#F9F9F9" stroke="#DDDDDD" stroke-width="0.82" stroke-linecap="round" stroke-linejoin="round"/>
<path d="M184.147 119.661L173.04 180.189L217.147 189.138L228.994 128.528L184.147 119.661Z" fill="#F9F9F9" stroke="#DDDDDD" stroke-width="0.82" stroke-linecap="round" stroke-linejoin="round"/>
<path d="M197.738 159.765C195.482 165.658 195.354 171.845 196.386 173.919C196.386 173.919 200.597 174.7 204.798 163.235L197.738 159.765Z" fill="#5F5F5F"/>
<path d="M203.483 148.401C193.39 144.922 188.567 142.811 186.75 142.315C184.932 141.82 178.365 141.269 177.315 142.315C176.851 142.816 176.534 143.436 176.399 144.107C176.264 144.777 176.315 145.472 176.547 146.115C176.894 147.52 175.78 148.539 175.634 149.962C175.488 151.384 177.178 151.797 176.821 153.211C176.465 154.625 175.36 156.158 176.127 157.709C176.894 159.26 175.36 160.866 176.821 162.767C178.283 164.667 193.162 165.575 196.422 164.878L202.816 167.751C202.816 167.751 214.096 156.066 203.483 148.401Z" fill="#F9C6B8"/>
<path d="M186.713 142.287C184.887 141.801 178.329 141.241 177.278 142.287C176.815 142.789 176.498 143.409 176.363 144.079C176.227 144.75 176.279 145.445 176.511 146.088C176.858 147.492 175.744 148.511 175.598 149.934C175.451 151.357 177.141 151.77 176.785 153.183C176.429 154.597 175.324 156.13 176.091 157.681C176.858 159.232 175.324 160.839 176.785 162.739" stroke="#F6B8A9" stroke-width="0.61" stroke-linecap="round" stroke-linejoin="round"/>
<path d="M263.765 189.138C261.144 193.902 254.568 196.206 242.1 192.415C238.73 191.396 235.478 190.332 232.373 189.258C227.221 187.486 222.472 185.669 218.215 183.934C210.792 180.967 203.525 177.621 196.441 173.91C198.308 171.824 199.815 169.438 200.898 166.851C201.579 165.316 202.138 163.729 202.569 162.106C203.734 157.615 204.044 152.943 203.483 148.337C205.182 148.851 207.008 149.371 208.963 149.897C213.612 151.173 218.818 152.504 224.098 153.899C239.917 158.085 256.367 162.886 260.377 168.852C260.742 169.394 261.089 169.954 261.418 170.523C261.546 170.743 261.683 170.973 261.802 171.202C261.839 171.261 261.872 171.323 261.902 171.386C262.048 171.652 262.194 171.936 262.331 172.212C262.581 172.695 262.809 173.182 263.016 173.671C265.309 179.133 265.976 185.044 263.765 189.138Z" fill="#711DC8"/>
<path d="M203.483 148.401C221.595 153.909 254.44 160.141 260.34 168.916C261.36 170.441 262.243 172.054 262.98 173.736" stroke="#5F5F5F" stroke-width="0.61" stroke-linecap="round" stroke-linejoin="round"/>
<path d="M208.89 149.934C210.014 161.344 204.15 172.294 204.15 172.294" stroke="#5F5F5F" stroke-width="0.61" stroke-linecap="round" stroke-linejoin="round"/>
<path d="M263.711 189.138C261.09 193.902 254.513 196.206 242.046 192.415C238.675 191.396 235.424 190.331 232.318 189.258C239.616 191.194 256.915 194.958 263.711 189.138Z" fill="#711DC8"/>
<path d="M223.504 55.5354L223.815 58.2892C217.485 68.1935 208.845 71.2961 203.922 71.2961C195.793 69.2583 193.016 61.9058 192.541 54.0209C192.419 52.1321 192.413 50.2376 192.523 48.3481C192.905 42.9971 193.823 37.6984 195.263 32.5324C195.263 32.5324 219.677 21.1135 221.367 44.0339C221.367 44.0339 226.601 43.116 227.578 48.9264C228.336 53.7547 223.504 55.5354 223.504 55.5354Z" fill="#F9C6B8"/>
<path d="M196.441 48.3756C196.981 48.3756 197.418 47.9359 197.418 47.3934C197.418 46.851 196.981 46.4113 196.441 46.4113C195.901 46.4113 195.464 46.851 195.464 47.3934C195.464 47.9359 195.901 48.3756 196.441 48.3756Z" fill="#683F1D"/>
<path d="M203.237 47.1272C203.776 47.1272 204.214 46.6875 204.214 46.145C204.214 45.6026 203.776 45.1628 203.237 45.1628C202.697 45.1628 202.259 45.6026 202.259 46.145C202.259 46.6875 202.697 47.1272 203.237 47.1272Z" fill="#683F1D"/>
<path d="M201.748 40.8762C201.857 42.2072 206.406 42.7121 206.662 41.9685C207.054 40.8211 201.51 37.7369 201.748 40.8762Z" fill="#604730"/>
<path d="M193.08 42.8406C193.08 43.5657 198.031 43.9054 197.848 41.3352C197.729 39.5086 193.19 40.8579 193.08 42.8406Z" fill="#604730"/>
<path d="M220.043 51.2762C222.08 48.2471 225.304 48.5776 225.642 49.1558" stroke="#934735" stroke-width="0.61" stroke-linecap="round" stroke-linejoin="round"/>
<path d="M220.91 50.2389C223.915 48.4674 225.55 52.4419 221.751 52.4419" stroke="#934735" stroke-width="0.61" stroke-linecap="round" stroke-linejoin="round"/>
<path d="M199.072 44.5479C199.894 46.1542 199.83 47.118 199.282 48.1553C198.734 49.1925 197.081 51.5332 197.948 53.6077" stroke="#934735" stroke-width="0.61" stroke-linecap="round" stroke-linejoin="round"/>
<path d="M204.397 53.9657C203.675 56.4533 200.743 58.0137 199.327 57.6924C199.327 57.6924 200.743 61.5569 203.237 60.5655C206.105 59.4365 204.397 53.9657 204.397 53.9657Z" fill="white" stroke="#934735" stroke-width="0.61" stroke-linecap="round" stroke-linejoin="round"/>
<path d="M219.595 54.8195C220.159 55.2094 220.799 55.4749 221.473 55.5983C222.147 55.7217 222.839 55.7003 223.504 55.5354" stroke="#934735" stroke-width="0.61" stroke-linecap="round" stroke-linejoin="round"/>
<path d="M228.464 41.6656C231.277 45.5392 227.057 47.1731 227.057 47.1731C226.626 46.5525 226.061 46.0378 225.404 45.6677C224.989 45.4225 224.525 45.2734 224.045 45.2311C223.565 45.1888 223.082 45.2545 222.631 45.4232C222.18 45.592 221.771 45.8597 221.436 46.2068C221.1 46.5539 220.846 46.9718 220.691 47.4301C214.946 47.5494 217.421 43.0424 217.421 43.0424C212.27 45.1078 212.105 39.8114 214.325 37.4156C210.306 41.9501 205.191 37.4156 206.031 33.3309C204.607 37.7919 199.537 37.9205 200.213 34.2488C199.778 35.0118 199.25 35.7178 198.642 36.3508C195.153 39.8664 192.039 36.103 193.345 33.3217C188.12 38.3243 185.855 32.725 190.842 29.7143C186.896 26.4648 191.555 21.8385 194.742 24.2068C194.021 18.4514 199.921 18.1944 202.515 21.554C203.538 15.2295 211.411 18.6809 211.731 21.6825C217.531 17.6069 222.025 20.6177 221.44 27.2359C223.787 24.0874 228.811 25.9325 226.92 34.0101C231.697 33.6613 232.528 39.692 228.464 41.6656Z" fill="#7E4A1A"/>
<path d="M225.404 45.6678C224.989 45.4226 224.524 45.2735 224.045 45.2312C223.565 45.1889 223.082 45.2545 222.631 45.4233C222.179 45.5921 221.771 45.8597 221.435 46.2069C221.1 46.554 220.846 46.9719 220.691 47.4302C214.946 47.5495 217.421 43.0425 217.421 43.0425C212.27 45.1078 212.105 39.8115 214.325 37.4157C210.306 41.9502 205.191 37.4157 206.031 33.331C204.606 37.792 199.537 37.9205 200.213 34.2489C199.777 35.0119 199.25 35.7179 198.642 36.3509C197.235 32.0642 200.387 26.4099 205.2 29.0076C205.83 25.5654 213.704 23.3348 213.658 32.055C216.572 27.9611 223.166 29.3656 220.051 37.1587C222.499 35.2127 228.144 38.407 225.404 45.6678Z" fill="#6D3D14"/>
<path d="M214.836 47.1823C215.53 48.5775 214.224 50.652 211.914 51.8178C209.603 52.9835 207.164 52.7357 206.433 51.3864C205.703 50.037 207.045 47.9166 209.356 46.7509C211.667 45.5851 214.133 45.7871 214.836 47.1823Z" fill="#F5B3A3"/>
<path d="M195.573 52.497C195.217 53.4884 194.012 54.0208 192.523 53.9932C192.408 52.1133 192.408 50.228 192.523 48.348C194.733 49.321 196.085 51.1018 195.573 52.497Z" fill="#F5B2A3"/>
<path d="M107.035 118.075L4.03394 124.09L3.9755e-05 55.0152L103.001 49.0001L107.035 118.075Z" fill="#263238"/>
<path d="M107.035 118.075L4.03394 124.09L3.86674 121.227L106.868 115.212L107.035 118.075Z" fill="#455A64"/>
<path d="M6.22618 122.526C6.21857 122.385 6.16932 122.25 6.08468 122.137C6.00003 122.024 5.88381 121.939 5.75072 121.892C5.61763 121.845 5.47367 121.839 5.33708 121.874C5.20048 121.909 5.0774 121.984 4.98342 122.09C4.88944 122.195 4.82879 122.325 4.80916 122.465C4.78952 122.605 4.81179 122.747 4.87314 122.874C4.93448 123.001 5.03214 123.107 5.15375 123.179C5.27536 123.25 5.41544 123.284 5.55625 123.276C5.74437 123.265 5.92047 123.18 6.04603 123.039C6.17158 122.899 6.23636 122.714 6.22618 122.526V122.526Z" fill="#C7C7C7"/>
<path d="M9.12558 122.356C9.11786 122.215 9.06813 122.079 8.98275 121.966C8.89738 121.853 8.78022 121.768 8.64626 121.721C8.51231 121.675 8.36763 121.67 8.23071 121.707C8.0938 121.743 7.97087 121.82 7.87763 121.926C7.7844 122.033 7.72509 122.165 7.70728 122.306C7.68948 122.446 7.71399 122.589 7.77768 122.715C7.84137 122.842 7.94135 122.947 8.06485 123.016C8.18834 123.086 8.32974 123.117 8.47098 123.105C8.65623 123.091 8.82835 123.004 8.95064 122.864C9.07293 122.724 9.1357 122.542 9.12558 122.356V122.356Z" fill="white"/>
<path d="M12.0248 122.187C12.0172 122.046 11.9679 121.911 11.8833 121.798C11.7986 121.685 11.6824 121.6 11.5493 121.553C11.4162 121.506 11.2723 121.5 11.1357 121.535C10.9991 121.57 10.876 121.645 10.782 121.751C10.688 121.856 10.6274 121.986 10.6077 122.126C10.5881 122.266 10.6104 122.408 10.6717 122.535C10.7331 122.662 10.8307 122.768 10.9523 122.84C11.0739 122.911 11.214 122.945 11.3548 122.937C11.543 122.926 11.7191 122.841 11.8446 122.7C11.9702 122.56 12.0349 122.375 12.0248 122.187V122.187Z" fill="#EF5A5A"/>
<path d="M103.169 51.8781L0.168213 57.8932L0.000133028 55.015L103.001 48.9999L103.169 51.8781Z" fill="#A6A6A6"/>
<path d="M95.6915 51.1822L6.64213 56.3826C6.56908 56.3869 6.49733 56.3619 6.44266 56.3133C6.38799 56.2647 6.35488 56.1963 6.35061 56.1233C6.34635 56.0502 6.37128 55.9785 6.41991 55.9238C6.46855 55.8691 6.53691 55.836 6.60996 55.8317L95.6594 50.6314C95.7324 50.6271 95.8042 50.652 95.8588 50.7007C95.9135 50.7493 95.9466 50.8177 95.9509 50.8907C95.9552 50.9638 95.9302 51.0355 95.8816 51.0902C95.833 51.1449 95.7646 51.178 95.6915 51.1822Z" fill="white"/>
<path d="M6.14801 56.135C6.15437 56.244 6.19289 56.3486 6.25871 56.4357C6.32453 56.5227 6.41469 56.5883 6.51778 56.6241C6.62087 56.6599 6.73227 56.6644 6.83789 56.6369C6.9435 56.6094 7.03859 56.5512 7.11113 56.4697C7.18367 56.3881 7.23041 56.2869 7.24542 56.1788C7.26044 56.0707 7.24306 55.9606 7.19549 55.8624C7.14791 55.7641 7.07229 55.6822 6.97816 55.627C6.88404 55.5717 6.77565 55.5457 6.6667 55.552C6.5206 55.5606 6.38388 55.6268 6.2866 55.7361C6.18933 55.8454 6.13947 55.989 6.14801 56.135V56.135Z" fill="#EF5A5A"/>
<path d="M100.255 51.5322L100.209 50.7333L100.459 50.7187L100.491 51.2634L101.039 51.2314L101.054 51.4856L100.255 51.5322V51.5322Z" fill="white"/>
<path d="M101.902 51.436L101.354 51.468L101.339 51.2139L101.887 51.1819L101.855 50.6371L102.106 50.6225L102.153 51.4214L101.902 51.436Z" fill="white"/>
<path d="M101.808 49.8381L101.26 49.87L101.246 49.6188L102.044 49.5721L102.091 50.3712L101.84 50.3859L101.808 49.8381Z" fill="white"/>
<path d="M100.444 50.4674L100.194 50.4821L100.147 49.6832L100.946 49.6365L100.961 49.8878L100.412 49.9198L100.444 50.4674Z" fill="white"/>
<path d="M1.11694 57.2335L1.02326 55.6292L2.36234 56.3557L1.11694 57.2335Z" fill="white"/>
<path d="M3.05077 56.2916C3.05444 56.3557 3.07591 56.4175 3.11275 56.4701C3.12783 56.4953 3.14953 56.5159 3.17549 56.5296C3.20145 56.5434 3.23068 56.5497 3.26 56.548C3.28932 56.5463 3.31761 56.5366 3.3418 56.5199C3.36598 56.5033 3.38514 56.4803 3.39719 56.4535C3.42778 56.397 3.442 56.3331 3.43825 56.2689C3.4345 56.2047 3.41294 56.1429 3.37598 56.0903C3.36089 56.0651 3.33919 56.0445 3.31323 56.0308C3.28727 56.017 3.25804 56.0107 3.22872 56.0124C3.1994 56.0141 3.17111 56.0238 3.14693 56.0405C3.12274 56.0572 3.10358 56.0801 3.09153 56.1069C3.06104 56.1635 3.04692 56.2275 3.05077 56.2916V56.2916ZM3.35342 56.2739C3.35713 56.3218 3.3474 56.3697 3.32533 56.4123C3.30329 56.448 3.28015 56.4645 3.25588 56.4619C3.2271 56.4568 3.20082 56.4423 3.18112 56.4207C3.15425 56.381 3.139 56.3345 3.13711 56.2866C3.13303 56.2397 3.14286 56.1926 3.16539 56.1513C3.17048 56.1365 3.17984 56.1236 3.19227 56.1142C3.20469 56.1048 3.21963 56.0993 3.23519 56.0984C3.25075 56.0975 3.26623 56.1012 3.27967 56.1091C3.2931 56.117 3.3039 56.1287 3.31067 56.1428C3.33748 56.1813 3.35235 56.227 3.35342 56.2739V56.2739Z" fill="white"/>
<path d="M3.60131 56.2593C3.60498 56.3234 3.62644 56.3852 3.66328 56.4378C3.67837 56.463 3.70007 56.4836 3.72603 56.4973C3.75199 56.511 3.78122 56.5174 3.81054 56.5157C3.83986 56.514 3.86815 56.5042 3.89233 56.4876C3.91652 56.4709 3.93568 56.448 3.94773 56.4212C3.97831 56.3646 3.99253 56.3007 3.98879 56.2365C3.98504 56.1724 3.96347 56.1105 3.92651 56.0579C3.91143 56.0327 3.88973 56.0122 3.86377 55.9984C3.83781 55.9847 3.80858 55.9783 3.77926 55.9801C3.74994 55.9818 3.72165 55.9915 3.69746 56.0081C3.67328 56.0248 3.65412 56.0478 3.64207 56.0746C3.6116 56.1311 3.59748 56.195 3.6013 56.2591L3.60131 56.2593ZM3.90396 56.2416C3.90766 56.2894 3.89793 56.3374 3.87587 56.38C3.85383 56.4156 3.83068 56.4322 3.80642 56.4296C3.77763 56.4245 3.75134 56.41 3.73166 56.3884C3.70478 56.3486 3.68954 56.3022 3.68765 56.2542C3.68358 56.2073 3.69341 56.1603 3.71592 56.1189C3.72109 56.1042 3.73047 56.0914 3.7429 56.0821C3.75532 56.0727 3.77022 56.0673 3.78575 56.0664C3.80127 56.0654 3.81671 56.0691 3.83014 56.077C3.84356 56.0848 3.85437 56.0965 3.86121 56.1104C3.88839 56.1489 3.90364 56.1945 3.90504 56.2415L3.90396 56.2416Z" fill="white"/>
<path d="M4.22742 56.3685C4.24239 56.3668 4.25622 56.3597 4.26623 56.3485C4.27623 56.3372 4.2817 56.3227 4.28157 56.3076C4.27984 56.293 4.27259 56.2796 4.26132 56.2702C4.25004 56.2608 4.23558 56.256 4.22091 56.2569C4.2135 56.2568 4.20616 56.2583 4.19934 56.2612C4.19253 56.2642 4.18638 56.2684 4.18129 56.2738C4.17619 56.2792 4.17226 56.2856 4.16973 56.2925C4.16719 56.2995 4.16612 56.3069 4.16656 56.3143C4.16745 56.3296 4.17437 56.3438 4.18578 56.354C4.19719 56.3642 4.21217 56.3694 4.22742 56.3685ZM4.20975 56.0658C4.22472 56.0642 4.23855 56.0571 4.24855 56.0458C4.25856 56.0346 4.26403 56.02 4.26389 56.005C4.26216 55.9904 4.25492 55.977 4.24364 55.9675C4.23236 55.9581 4.21791 55.9534 4.20323 55.9542C4.19582 55.9542 4.18848 55.9557 4.18167 55.9586C4.17485 55.9615 4.16871 55.9658 4.16361 55.9712C4.15852 55.9766 4.15458 55.9829 4.15205 55.9899C4.14952 55.9969 4.14844 56.0043 4.14889 56.0117C4.14978 56.0269 4.15669 56.0412 4.16811 56.0514C4.17952 56.0615 4.1945 56.0667 4.20975 56.0658Z" fill="white"/>
<path d="M4.32756 56.2172C4.32986 56.2815 4.35145 56.3437 4.38953 56.3957C4.40588 56.4195 4.42787 56.439 4.45354 56.4523C4.47921 56.4656 4.50778 56.4724 4.5367 56.4721C4.56507 56.4691 4.59224 56.4591 4.6157 56.4429C4.63915 56.4266 4.65814 56.4047 4.67091 56.3792C4.7015 56.3227 4.71572 56.2588 4.71197 56.1946C4.70822 56.1305 4.68666 56.0686 4.6497 56.016C4.63405 55.9922 4.61264 55.9727 4.58746 55.9593C4.56227 55.9459 4.53411 55.9391 4.50559 55.9394C4.47683 55.9425 4.44925 55.9525 4.4253 55.9688C4.40136 55.985 4.38178 56.0069 4.36832 56.0325C4.3365 56.0885 4.3223 56.1529 4.32756 56.2172V56.2172ZM4.63021 56.1995C4.63391 56.2473 4.62418 56.2953 4.60211 56.3379C4.58279 56.3725 4.55952 56.389 4.53519 56.3873C4.51996 56.3893 4.50451 56.3864 4.49107 56.379C4.47763 56.3716 4.4669 56.3601 4.46043 56.3461C4.43356 56.3064 4.41831 56.2599 4.41642 56.212C4.41234 56.1651 4.42217 56.118 4.44469 56.0767C4.45113 56.0629 4.46079 56.051 4.47285 56.0418C4.48492 56.0326 4.49902 56.0265 4.51397 56.024C4.52881 56.0246 4.54323 56.0291 4.55589 56.0368C4.56855 56.0446 4.57904 56.0555 4.58638 56.0684C4.61263 56.1072 4.62693 56.1528 4.6275 56.1996L4.63021 56.1995Z" fill="white"/>
<path d="M4.86637 56.1854C4.86868 56.2498 4.89027 56.312 4.92835 56.3639C4.9447 56.3878 4.96669 56.4072 4.99236 56.4206C5.01803 56.4339 5.04659 56.4407 5.07552 56.4403C5.10421 56.4371 5.13168 56.4269 5.15558 56.4107C5.17948 56.3945 5.19911 56.3728 5.21279 56.3473C5.24114 56.2902 5.2541 56.2266 5.25038 56.1629C5.24666 56.0992 5.22639 56.0376 5.19158 55.9841C5.17503 55.9604 5.15301 55.9411 5.12738 55.9278C5.10175 55.9145 5.07329 55.9076 5.04441 55.9077C5.01564 55.9107 4.98807 55.9208 4.96412 55.937C4.94018 55.9532 4.9206 55.9751 4.90714 56.0007C4.87533 56.0568 4.86113 56.1212 4.86637 56.1854V56.1854ZM5.16902 56.1677C5.17161 56.2159 5.16076 56.2639 5.13769 56.3063C5.11836 56.3409 5.09509 56.3575 5.07076 56.3558C5.05554 56.3578 5.04008 56.3548 5.02664 56.3474C5.0132 56.34 5.00247 56.3285 4.99601 56.3146C4.96913 56.2748 4.95389 56.2284 4.952 56.1804C4.94791 56.1335 4.95774 56.0864 4.98027 56.0451C4.9867 56.0314 4.99636 56.0194 5.00843 56.0102C5.02049 56.0011 5.03459 55.9949 5.04954 55.9924C5.06438 55.9931 5.0788 55.9975 5.09146 56.0053C5.10413 56.0131 5.11461 56.0239 5.12195 56.0368C5.15025 56.0748 5.16664 56.1204 5.16902 56.1677V56.1677Z" fill="white"/>
<path d="M97.1266 50.7977C97.1303 50.8618 97.1518 50.9236 97.1886 50.9762C97.2037 51.0014 97.2254 51.022 97.2514 51.0357C97.2773 51.0495 97.3065 51.0558 97.3359 51.0541C97.3652 51.0524 97.3935 51.0427 97.4177 51.026C97.4418 51.0094 97.461 50.9864 97.4731 50.9596C97.5036 50.9031 97.5179 50.8391 97.5141 50.775C97.5104 50.7108 97.4888 50.649 97.4518 50.5964C97.4368 50.5712 97.4151 50.5506 97.3891 50.5369C97.3631 50.5231 97.3339 50.5168 97.3046 50.5185C97.2753 50.5202 97.247 50.5299 97.2228 50.5466C97.1986 50.5632 97.1794 50.5862 97.1674 50.613C97.1369 50.6695 97.1227 50.7334 97.1264 50.7975L97.1266 50.7977ZM97.4293 50.78C97.433 50.8279 97.4233 50.8758 97.4012 50.9184C97.3792 50.9541 97.356 50.9706 97.3317 50.968C97.303 50.9629 97.2767 50.9484 97.257 50.9268C97.2301 50.8871 97.2149 50.8406 97.213 50.7927C97.2089 50.7458 97.2187 50.6987 97.2412 50.6573C97.2463 50.6426 97.2557 50.6297 97.2681 50.6203C97.2806 50.6109 97.2955 50.6054 97.3111 50.6045C97.3266 50.6036 97.3421 50.6073 97.3555 50.6152C97.369 50.6231 97.3798 50.6348 97.3865 50.6489C97.4133 50.6874 97.4282 50.7331 97.4293 50.78V50.78Z" fill="white"/>
<path d="M97.9533 50.8072C97.9707 50.7891 97.9841 50.7677 97.9927 50.7441C98.0012 50.7206 98.0048 50.6956 98.0031 50.6706C97.9993 50.6204 97.9758 50.5737 97.9378 50.5407C97.9198 50.5234 97.8983 50.5099 97.8748 50.5014C97.8512 50.4928 97.8262 50.4893 97.8012 50.491V50.491C97.7762 50.4922 97.7517 50.4986 97.7294 50.5099C97.707 50.5211 97.6872 50.5369 97.6714 50.5563C97.6671 50.5602 97.6638 50.5651 97.6616 50.5705C97.6595 50.5758 97.6585 50.5816 97.6589 50.5874C97.6592 50.5932 97.6608 50.5988 97.6636 50.6039C97.6664 50.609 97.6702 50.6134 97.6749 50.6169C97.6837 50.6238 97.6947 50.6273 97.7059 50.6267C97.717 50.626 97.7276 50.6213 97.7355 50.6133C97.7443 50.6031 97.755 50.5948 97.7671 50.5889C97.7792 50.583 97.7924 50.5795 97.8058 50.5788C97.8193 50.578 97.8328 50.5799 97.8456 50.5844C97.8584 50.5888 97.8702 50.5957 97.8803 50.6047C97.8904 50.6137 97.8987 50.6246 97.9046 50.6368C97.9105 50.649 97.9139 50.6622 97.9147 50.6757C97.9156 50.6892 97.9137 50.7026 97.9092 50.7153C97.9047 50.728 97.8977 50.7397 97.8887 50.7496C97.8801 50.7601 97.8694 50.7686 97.8572 50.7745C97.8451 50.7805 97.8318 50.7838 97.8183 50.7841C97.7912 50.7855 97.7647 50.7761 97.7445 50.758C97.7405 50.7538 97.7357 50.7505 97.7303 50.7483C97.7249 50.7462 97.7191 50.7452 97.7133 50.7455C97.7075 50.7459 97.7019 50.7475 97.6968 50.7503C97.6917 50.753 97.6873 50.7569 97.6839 50.7616V50.7616L97.6864 50.8039L97.722 50.9992C97.7222 51.0054 97.7242 51.0115 97.7277 51.0166C97.7312 51.0218 97.7361 51.0259 97.7418 51.0284L97.99 51.0139C98.0012 51.0133 98.0118 51.0082 98.0192 50.9998C98.0267 50.9914 98.0305 50.9803 98.0299 50.9691C98.0292 50.9578 98.0241 50.9473 98.0157 50.9399C98.0073 50.9324 97.9963 50.9285 97.9851 50.9292L97.7884 50.9407L97.784 50.865C97.8011 50.8668 97.8185 50.8658 97.8353 50.862C97.8799 50.8583 97.9218 50.8389 97.9533 50.8072Z" fill="white"/>
<path d="M98.2126 50.88C98.2279 50.8791 98.2422 50.8722 98.2523 50.8608C98.2625 50.8494 98.2677 50.8344 98.2668 50.8191C98.2651 50.8049 98.2581 50.7918 98.2471 50.7826C98.2361 50.7734 98.222 50.7687 98.2077 50.7695C98.1934 50.7704 98.1799 50.7766 98.1701 50.7871C98.1603 50.7975 98.1548 50.8113 98.1548 50.8257C98.1557 50.8404 98.1621 50.8543 98.1729 50.8644C98.1837 50.8745 98.1979 50.8801 98.2126 50.88ZM98.195 50.5773C98.2102 50.5765 98.2245 50.5695 98.2346 50.5581C98.2448 50.5467 98.25 50.5317 98.2491 50.5165C98.2475 50.5022 98.2404 50.4892 98.2294 50.4799C98.2185 50.4707 98.2044 50.466 98.19 50.4669C98.1757 50.4677 98.1623 50.474 98.1524 50.4844C98.1426 50.4949 98.1371 50.5087 98.1372 50.523C98.138 50.5378 98.1445 50.5516 98.1552 50.5617C98.166 50.5718 98.1802 50.5774 98.195 50.5773V50.5773Z" fill="white"/>
<path d="M98.6071 50.7689C98.6398 50.7313 98.6565 50.6823 98.6535 50.6326C98.6506 50.5828 98.6284 50.5361 98.5915 50.5025C98.5735 50.4852 98.552 50.4717 98.5285 50.463C98.505 50.4543 98.4799 50.4506 98.4549 50.4521C98.4299 50.4535 98.4055 50.4602 98.3831 50.4715C98.3608 50.4829 98.341 50.4987 98.3251 50.5181C98.3176 50.5266 98.3137 50.5377 98.3143 50.5491C98.315 50.5604 98.3202 50.5711 98.3287 50.5786C98.3372 50.5862 98.3483 50.5901 98.3597 50.5894C98.371 50.5888 98.3817 50.5836 98.3892 50.5751C98.3978 50.5646 98.4085 50.5561 98.4206 50.5502C98.4328 50.5442 98.446 50.541 98.4596 50.5406C98.4869 50.539 98.5137 50.5483 98.5341 50.5665C98.5545 50.5847 98.5669 50.6102 98.5685 50.6375C98.5701 50.6648 98.5608 50.6916 98.5426 50.7121C98.5244 50.7325 98.4989 50.7449 98.4716 50.7465C98.4657 50.7467 98.4599 50.7483 98.4548 50.7513C98.4496 50.7542 98.4453 50.7584 98.4422 50.7634C98.4352 50.7721 98.4317 50.7832 98.4324 50.7943C98.433 50.8055 98.4378 50.816 98.4457 50.8239L98.526 50.8983L98.3928 50.9061C98.3816 50.9067 98.3711 50.9118 98.3636 50.9202C98.3561 50.9286 98.3523 50.9397 98.3529 50.9509C98.3536 50.9621 98.3587 50.9727 98.3671 50.9801C98.3755 50.9876 98.3865 50.9914 98.3978 50.9908L98.6216 50.9777C98.6351 50.9745 98.6468 50.9661 98.6541 50.9542C98.6614 50.9424 98.6637 50.9282 98.6605 50.9147L98.5578 50.8205C98.5774 50.8068 98.5939 50.7893 98.6064 50.769L98.6071 50.7689Z" fill="white"/>
<path d="M99.0611 50.7424C99.0938 50.7047 99.1105 50.6558 99.1076 50.606C99.1046 50.5562 99.0824 50.5096 99.0455 50.476C99.0275 50.4586 99.0061 50.4452 98.9825 50.4366C98.959 50.4281 98.934 50.4245 98.909 50.4262V50.4262C98.8845 50.4278 98.8606 50.4344 98.8388 50.4456C98.817 50.4568 98.7977 50.4724 98.7822 50.4914C98.7779 50.4953 98.7746 50.5001 98.7725 50.5055C98.7703 50.5109 98.7694 50.5167 98.7697 50.5225C98.77 50.5283 98.7717 50.5339 98.7744 50.539C98.7772 50.5441 98.7811 50.5485 98.7857 50.5519C98.7945 50.5589 98.8055 50.5624 98.8167 50.5617C98.8279 50.5611 98.8384 50.5563 98.8463 50.5484C98.8548 50.5379 98.8656 50.5294 98.8777 50.5235C98.8898 50.5175 98.9031 50.5142 98.9166 50.5139C98.9301 50.513 98.9435 50.5149 98.9562 50.5194C98.9689 50.5239 98.9806 50.5309 98.9905 50.54C99.0105 50.5581 99.0229 50.5833 99.025 50.6103C99.0266 50.6376 99.0173 50.6644 98.9991 50.6848C98.9809 50.7053 98.9554 50.7176 98.9281 50.7192C98.9146 50.7204 98.901 50.7187 98.8883 50.7142C98.8755 50.7097 98.8639 50.7026 98.8542 50.6932C98.8503 50.6889 98.8454 50.6856 98.84 50.6834C98.8347 50.6813 98.8289 50.6803 98.8231 50.6807C98.8173 50.681 98.8117 50.6826 98.8066 50.6854C98.8015 50.6882 98.7971 50.692 98.7936 50.6967V50.6967L98.7961 50.7391L98.8289 50.9345C98.8303 50.9407 98.8331 50.9466 98.8371 50.9516C98.841 50.9567 98.8461 50.9607 98.8519 50.9635L99.0998 50.949C99.111 50.9484 99.1215 50.9433 99.129 50.9349C99.1365 50.9265 99.1403 50.9154 99.1396 50.9042C99.139 50.893 99.1339 50.8825 99.1255 50.875C99.1171 50.8675 99.106 50.8637 99.0948 50.8643L98.9072 50.8753L98.9027 50.7996C98.9199 50.8015 98.9373 50.8005 98.9541 50.7966C98.9942 50.7902 99.0312 50.7709 99.0594 50.7418L99.0611 50.7424Z" fill="white"/>
<path d="M52.8743 75.523C58.96 75.1676 64.1816 79.813 64.537 85.8987C64.8924 91.9845 60.247 97.206 54.1613 97.5614C48.0756 97.9168 42.854 93.2715 42.4986 87.1857C42.1432 81.1 46.7885 75.8784 52.8743 75.523Z" fill="#EF5A5A"/>
<path d="M46.1663 75.8872C46.1086 75.8898 46.0528 75.9089 46.0055 75.9422C43.2943 77.8663 41.4231 80.7558 40.7765 84.0169C40.13 87.2779 40.7571 90.6628 42.529 93.4758C42.5743 93.5437 42.6443 93.5911 42.7241 93.608C42.8039 93.6249 42.8871 93.6099 42.956 93.5662C43.0249 93.5225 43.0739 93.4535 43.0926 93.3742C43.1113 93.2948 43.0982 93.2112 43.0561 93.1414C41.3682 90.464 40.7703 87.2416 41.3854 84.1369C42.0005 81.0322 43.7818 78.2812 46.363 76.4496C46.4183 76.4109 46.4594 76.3552 46.4801 76.291C46.5008 76.2267 46.4999 76.1575 46.4776 76.0938C46.4553 76.0301 46.4128 75.9755 46.3566 75.9382C46.3004 75.9009 46.2335 75.883 46.1661 75.8872L46.1663 75.8872Z" fill="#EF5A5A"/>
<path d="M52.7603 73.574C51.5251 73.6456 50.3064 73.8927 49.1409 74.3078C49.1024 74.3216 49.067 74.3428 49.0368 74.3703C49.0065 74.3978 48.982 74.431 48.9645 74.468C48.9471 74.5049 48.9371 74.545 48.9351 74.5858C48.9332 74.6267 48.9393 74.6675 48.9531 74.706C48.9669 74.7445 48.9881 74.7798 49.0156 74.8101C49.0431 74.8404 49.0763 74.8649 49.1133 74.8824C49.1503 74.8998 49.1903 74.9098 49.2311 74.9117C49.272 74.9137 49.3128 74.9076 49.3513 74.8938C50.9957 74.3068 52.7456 74.0739 54.4863 74.2103C56.227 74.3468 57.9193 74.8495 59.4521 75.6856C59.488 75.7065 59.5278 75.7199 59.569 75.7252C59.6102 75.7305 59.652 75.7275 59.692 75.7164C59.732 75.7052 59.7694 75.6862 59.802 75.6604C59.8345 75.6346 59.8616 75.6025 59.8815 75.5661C59.9015 75.5296 59.914 75.4896 59.9182 75.4483C59.9225 75.4069 59.9184 75.3652 59.9063 75.3255C59.8941 75.2857 59.8741 75.2488 59.8475 75.217C59.8209 75.1851 59.7882 75.1588 59.7512 75.1398C57.6141 73.9719 55.1914 73.4293 52.7603 73.5742L52.7603 73.574Z" fill="#EF5A5A"/>
<path d="M61.3287 76.2591C61.2652 76.2623 61.2041 76.2848 61.1538 76.3237C61.1035 76.3627 61.0664 76.4161 61.0474 76.4768C61.0284 76.5375 61.0285 76.6026 61.0477 76.6632C61.0669 76.7238 61.1042 76.7771 61.1546 76.8159C62.5342 77.8963 63.6679 79.2582 64.4801 80.811C65.2923 82.3637 65.7645 84.0716 65.8651 85.8211C65.87 85.9034 65.9072 85.9804 65.9688 86.0351C66.0304 86.0899 66.1112 86.118 66.1935 86.1132C66.2758 86.1084 66.3528 86.0711 66.4075 86.0095C66.4623 85.9479 66.4904 85.8671 66.4856 85.7848C66.38 83.9473 65.8843 82.1534 65.0313 80.5224C64.1784 78.8915 62.9879 77.4609 61.5389 76.3259C61.4797 76.278 61.4047 76.2542 61.3287 76.2591V76.2591Z" fill="#EF5A5A"/>
<path d="M65.858 89.0707C65.7895 89.0723 65.7236 89.0971 65.6711 89.1409C65.6185 89.1848 65.5823 89.2452 65.5684 89.3122C65.3792 90.1426 65.1027 90.9507 64.7435 91.7229C64.708 91.7978 64.7037 91.8838 64.7314 91.9619C64.7592 92.04 64.8167 92.104 64.8915 92.1398C64.9663 92.1756 65.0522 92.1803 65.1304 92.1529C65.2087 92.1255 65.2729 92.0682 65.309 91.9936C65.6838 91.1806 65.9741 90.3312 66.1753 89.4589C66.1854 89.4191 66.1873 89.3776 66.1809 89.337C66.1745 89.2963 66.1599 89.2575 66.138 89.2227C66.1161 89.1879 66.0873 89.1579 66.0535 89.1346C66.0196 89.1112 65.9814 89.0951 65.941 89.087C65.9143 89.0773 65.8863 89.0718 65.858 89.0707V89.0707Z" fill="#EF5A5A"/>
<path d="M44.2027 94.8542C44.1435 94.8562 44.0862 94.8754 44.0377 94.9093C43.9892 94.9433 43.9515 94.9905 43.9293 95.0454C43.9072 95.1003 43.9014 95.1605 43.9127 95.2186C43.924 95.2767 43.952 95.3303 43.9931 95.3729C45.2918 96.7751 46.8841 97.8733 48.6562 98.5891C50.4283 99.3049 52.3365 99.6207 54.2447 99.5139C56.153 99.4071 58.0141 98.8804 59.6953 97.9713C61.3764 97.0622 62.8362 95.7932 63.9703 94.2549C63.9945 94.222 64.012 94.1846 64.0218 94.1449C64.0315 94.1053 64.0334 94.064 64.0272 94.0237C64.021 93.9833 64.007 93.9445 63.9858 93.9095C63.9647 93.8746 63.9368 93.8441 63.9039 93.8199C63.871 93.7957 63.8336 93.7782 63.794 93.7684C63.7543 93.7587 63.7131 93.7568 63.6727 93.763C63.6323 93.7692 63.5935 93.7832 63.5585 93.8044C63.5236 93.8255 63.4931 93.8533 63.4689 93.8863C62.3894 95.3509 60.9999 96.5591 59.3995 97.4247C57.7991 98.2903 56.0273 98.7919 54.2107 98.8936C52.3941 98.9953 50.5774 98.6947 48.8903 98.0133C47.2033 97.3318 45.6875 96.2862 44.4513 94.9513C44.42 94.9171 44.3814 94.8905 44.3383 94.8735C44.2952 94.8566 44.2488 94.8497 44.2026 94.8535L44.2027 94.8542Z" fill="#EF5A5A"/>
<path d="M67.939 89.5051C67.8709 89.5066 67.8053 89.5309 67.7527 89.5742C67.7002 89.6175 67.6637 89.6773 67.6492 89.7438C66.826 93.3609 64.6494 96.5257 61.5662 98.5885C58.4831 100.651 54.7272 101.456 51.0697 100.836C51.0294 100.83 50.9882 100.831 50.9485 100.84C50.9087 100.85 50.8712 100.867 50.8381 100.891C50.8049 100.914 50.7768 100.944 50.7552 100.979C50.7337 101.014 50.7192 101.052 50.7126 101.093C50.7059 101.133 50.7073 101.174 50.7166 101.214C50.7259 101.254 50.7429 101.291 50.7667 101.324C50.7905 101.357 50.8206 101.386 50.8552 101.407C50.8899 101.429 50.9285 101.443 50.9687 101.45C54.7837 102.1 58.7027 101.261 61.9181 99.108C65.1336 96.9546 67.4006 93.6499 68.2521 89.8748C68.261 89.8358 68.262 89.7955 68.2552 89.7561C68.2483 89.7167 68.2338 89.679 68.2124 89.6453C68.1909 89.6115 68.163 89.5823 68.1303 89.5594C68.0975 89.5365 68.0605 89.5203 68.0215 89.5117C67.9943 89.5065 67.9666 89.5043 67.939 89.5051V89.5051Z" fill="#EF5A5A"/>
<path d="M39.2974 90.4093L39.2284 90.4133C39.1902 90.4245 39.1545 90.4431 39.1235 90.4681C39.0924 90.4931 39.0666 90.5239 39.0475 90.5589C39.0284 90.5939 39.0164 90.6323 39.0121 90.6719C39.0079 90.7115 39.0114 90.7516 39.0227 90.7898C39.6256 92.8339 40.6528 94.7279 42.0373 96.3482C43.4217 97.9685 45.1323 99.2786 47.0573 100.193C47.13 100.226 47.2127 100.23 47.2881 100.203C47.3634 100.177 47.4253 100.122 47.4607 100.05C47.4961 99.9782 47.5021 99.8956 47.4775 99.8195C47.4529 99.7435 47.3995 99.68 47.3289 99.6427C45.4805 98.7694 43.8373 97.5159 42.5065 95.9641C41.1757 94.4123 40.1873 92.5971 39.6059 90.6373C39.5887 90.5695 39.5486 90.5098 39.4923 90.4683C39.4361 90.4267 39.3673 90.4059 39.2974 90.4093Z" fill="#EF5A5A"/>
<path d="M42.4425 76.4024C42.4027 76.4045 42.3636 76.4145 42.3276 76.4317C42.2917 76.4489 42.2594 76.4731 42.2328 76.5028C40.8093 78.1001 39.7421 79.9822 39.1021 82.0238C38.4622 84.0655 38.2641 86.22 38.521 88.3441C38.5255 88.3838 38.5378 88.4223 38.5572 88.4573C38.5766 88.4923 38.6028 88.5231 38.6341 88.548C38.6655 88.5729 38.7015 88.5913 38.74 88.6022C38.7785 88.6131 38.8187 88.6163 38.8585 88.6116C38.8982 88.6069 38.9367 88.5944 38.9716 88.5748C39.0064 88.5552 39.0371 88.5289 39.0618 88.4974C39.0865 88.4659 39.1047 88.4298 39.1154 88.3913C39.1261 88.3527 39.1291 88.3124 39.1242 88.2727C38.8767 86.2337 39.0661 84.1655 39.68 82.2054C40.2938 80.2454 41.318 78.4385 42.6844 76.9051C42.7241 76.8606 42.7497 76.8053 42.758 76.7462C42.7663 76.6872 42.7569 76.627 42.731 76.5733C42.7052 76.5196 42.664 76.4747 42.6126 76.4444C42.5613 76.4141 42.5021 76.3997 42.4425 76.403L42.4425 76.4024Z" fill="#EF5A5A"/>
<path d="M48.3799 72.3508C48.3505 72.3479 48.3209 72.3496 48.2921 72.3559C47.3145 72.7158 46.3775 73.1777 45.4967 73.7339C45.4628 73.7557 45.4335 73.7839 45.4106 73.8171C45.3876 73.8502 45.3714 73.8875 45.363 73.9269C45.3545 73.9663 45.3539 74.007 45.3613 74.0467C45.3686 74.0863 45.3837 74.1241 45.4057 74.1578C45.4277 74.1916 45.4562 74.2207 45.4895 74.2434C45.5228 74.2661 45.5602 74.282 45.5997 74.2902C45.6392 74.2984 45.6798 74.2987 45.7194 74.291C45.759 74.2834 45.7967 74.2681 45.8303 74.2458C46.6773 73.716 47.5765 73.2748 48.5138 72.929C48.5824 72.9039 48.6393 72.8547 48.6741 72.7906C48.7088 72.7264 48.7189 72.6518 48.7024 72.5807C48.686 72.5096 48.6441 72.447 48.5847 72.4047C48.5253 72.3623 48.4524 72.3432 48.3799 72.3508V72.3508Z" fill="#EF5A5A"/>
<path d="M52.6427 71.4613C52.1858 71.488 51.736 71.5356 51.2695 71.6054C51.2301 71.6112 51.1923 71.6248 51.1582 71.6452C51.1241 71.6657 51.0944 71.6927 51.0707 71.7247C51.047 71.7566 51.0299 71.7929 51.0203 71.8315C51.0106 71.8701 51.0087 71.9102 51.0145 71.9495C51.0204 71.9889 51.0339 72.0267 51.0544 72.0608C51.0749 72.0949 51.1019 72.1246 51.1338 72.1483C51.1658 72.1719 51.2021 72.1891 51.2407 72.1987C51.2793 72.2084 51.3194 72.2103 51.3587 72.2044C53.4687 71.8828 55.6236 72.0314 57.6695 72.6395C59.7154 73.2475 61.6017 74.3002 63.1934 75.722C64.7852 77.1439 66.0431 78.8999 66.8773 80.8645C67.7115 82.8291 68.1013 84.9537 68.0189 87.0864C68.0159 87.1667 68.045 87.2449 68.0997 87.3038C68.1543 87.3627 68.2302 87.3974 68.3105 87.4004C68.3908 87.4034 68.469 87.3743 68.5279 87.3196C68.5868 87.2649 68.6215 87.1891 68.6245 87.1088C68.7034 85.0053 68.342 82.9086 67.5632 80.953C66.7845 78.9975 65.6056 77.2262 64.1023 75.7529C62.5989 74.2796 60.8043 73.1367 58.8334 72.3975C56.8625 71.6584 54.7589 71.3393 52.6575 71.4606L52.6427 71.4613Z" fill="#EF5A5A"/>
<path d="M49.2526 82.5642L49.7446 90.9897L59.28 86.2058L49.2526 82.5642Z" fill="white"/>
</svg>
